
<?xml version="1.0" encoding="iso-8859-1"?>
<svg xmlns="http://www.w3.org/2000/svg" xmlns:xlink="http://www.w3.org/1999/xlink" version="1.1" id="Capa_1" x="0px" y="0px" viewBox="0 0 512 512" style="enable-background:new 0 0 512 512;" xml:space="preserve">
<g>
	<path style="fill:#FFFFFF;" d="M256.014,512c-64.949,0-126.886-24.375-174.4-68.634c-10.818-10.037-20.845-21.128-29.775-32.944   c-9.354-12.322-17.664-25.664-24.676-39.624c-2.355-4.621-4.663-9.584-6.818-14.664l-1.248-2.975   c-2.68-6.48-5.16-13.331-7.367-20.347C3.946,308.077,0,282.229,0,255.986c0-50.958,14.939-100.177,43.202-142.339   c21.287-31.764,49.923-58.806,82.812-78.2C165.198,12.262,210.158,0,256.014,0c39.769,0,77.872,8.866,113.253,26.354   c23.371,11.536,44.845,26.59,63.818,44.742C483.977,119.875,512,185.533,512,255.986c0,26.144-3.935,51.942-11.698,76.677   c-2.117,6.788-4.605,13.683-7.386,20.465c-0.421,1.023-0.837,2.007-1.255,2.991c-2.099,4.951-4.386,9.892-6.8,14.689   c-6.646,13.265-14.608,26.148-23.652,38.264c-9.498,12.726-20.297,24.671-32.096,35.503C381.785,488.054,320.308,512,256.014,512z"/>
	<g>
		<g>
			<path style="fill:#5B8396;" d="M493.669,257.31c0,24.943-3.829,49.013-10.923,71.619c-1.436,4.617-16.131,8.22-17.82,12.724     l-1.52,0.957l-8.586,5.433l-4.448,2.815l-21.621,13.682l-40.454,25.59l-5.461,3.463l-19.791,12.528l-3.125,1.971l-25.731,16.3     l-2.477,1.548l-22.775,14.414l-12.049,7.629l-45.916,29.053c-0.45-1.154-15.906-11.514-38.512-26.238     c-4.251-2.787-8.755-5.715-13.485-8.755c-2.815-1.83-5.743-3.716-8.699-5.63c-1.042-0.676-2.111-1.379-3.181-2.055     c-9.544-6.165-19.65-12.668-29.982-19.34c-0.873-0.563-1.745-1.126-2.646-1.689c-4.082-2.646-8.22-5.293-12.331-7.939     c-1.21-0.788-2.421-1.548-3.632-2.337c-4.617-2.984-9.234-5.94-13.823-8.896c-1.745-1.126-3.491-2.224-5.208-3.35     c-14.301-9.206-28.152-18.158-40.623-26.266c-7.601-4.898-14.667-9.516-21.03-13.682c-1.436-0.957-2.871-1.886-4.251-2.815     c-2.928-1.914-5.659-3.744-8.192-5.433c-11.599-7.714-18.721-12.725-18.974-13.541c-7.122-22.634-10.951-46.76-10.951-71.759     c0-49.21,14.864-94.928,40.342-132.934c19.96-29.785,46.423-54.812,77.361-73.055c35.584-21.057,77.08-33.106,121.419-33.106     c37.977,0,73.871,8.84,105.767,24.605c10.685,5.274,3.356,29.494,13.058,36.242c10.288,7.156,37.541-3.072,46.568,5.563     C465.377,128.148,493.669,189.435,493.669,257.31z"/>
		</g>
	</g>
</svg>
