<?xml version="1.0" encoding="UTF-8"?>
<!-- Generator: Adobe Illustrator 26.5.1, SVG Export Plug-In . SVG Version: 6.00 Build 0)  -->
<svg xmlns="http://www.w3.org/2000/svg" xmlns:xlink="http://www.w3.org/1999/xlink" version="1.1" id="Capa_1" x="0px" y="0px" viewBox="0 0 512 512" style="enable-background:new 0 0 512 512;" xml:space="preserve" width="512" height="512">
<g>
	<path style="fill:#FFFFFF;" d="M256,512C114.841,512,0,397.158,0,255.999c0-23.225,3.106-46.187,9.241-68.372   c-4.945-8.451-9.661-20.301-2.328-30.457c3.527-4.889,9.006-7.696,15.031-7.696c0.403,0,0.802,0.012,1.195,0.036   c11.571-25.327,27.129-48.436,46.418-68.917c0.939-2.552,2.105-4.936,3.49-7.123c2.932-4.682,6.969-8.505,11.59-11.156   c0.591-5.001,1.991-9.855,4.176-14.409c3.191-6.718,7.722-12.695,13.076-17.225c8.305-7.012,18.957-10.868,30.003-10.868   c3.751,0,7.472,0.456,11.056,1.353c2.154,0.544,4.26,1.247,6.308,2.103C182.808,7.823,218.674,0,256,0   c141.159,0,256,114.841,256,255.999C512,397.158,397.159,512,256,512z"/>
	<g>
		<g>
			<g>
				<circle style="fill:#FFE6C8;" cx="259.026" cy="254.676" r="239.719"/>
				<circle style="opacity:0.09;fill:#FF4200;" cx="259.026" cy="254.676" r="127.48"/>
				<path style="fill:#300000;" d="M259.026,450.949c-108.226,0-196.272-88.048-196.272-196.273S150.801,58.404,259.026,58.404      s196.272,88.047,196.272,196.272S367.252,450.949,259.026,450.949z M259.026,61.118c-106.729,0-193.56,86.83-193.56,193.559      c0,106.729,86.831,193.559,193.56,193.559s193.56-86.83,193.56-193.559C452.586,147.948,365.755,61.118,259.026,61.118z"/>
			</g>
			<g>
				<g>
					<path style="fill:#FF4200;" d="M462.938,255.643c-4.641,10.696-11.354,20.448-19.838,28.441       c-19.505,18.367-47.881,26.861-74.294,22.233c-26.391-4.622-50.191-22.264-62.315-46.18       c-7.308-14.422-10.336-31.712-5.371-46.963c0.442-1.409,0.968-2.77,1.562-4.112c4.076-9.37,11.975-17.186,21.368-21.203       c8.519-3.678,17.221-3.656,25.665-0.446c0.884,0.32,1.755,0.685,2.613,1.095c8.442,3.915,16.737,11.753,26.502,11.975       c7.271,0.182,13.023-4.561,18.491-8.725c3.024-2.293,6.026-4.593,9.132-6.742c5.656-3.966,11.583-7.419,18.345-9.423       c8.452-2.48,17.898-2.421,25.716,1.636c12.067,6.265,17.787,20.535,19.316,34.049       C471.533,226.348,469.002,241.769,462.938,255.643z"/>
					<g>
						<path style="fill:#FFE6C8;" d="M432.382,200.569c0.6,5.218,2.59,10.27,5.709,14.496c1.729,2.343,3.89,4.494,6.617,5.514        s6.102,0.683,8.138-1.398c1.206-1.232,1.83-2.917,2.251-4.589c2-7.938-0.254-20.376-7.563-25.361        C439.235,183.57,431.425,192.242,432.382,200.569z"/>
						<path style="fill:#FFE6C8;" d="M452.934,230.58c-1.55,1.789-2.136,4.309-1.771,6.647c0.338,2.161,1.485,4.22,3.26,5.499        c1.775,1.279,4.179,1.708,6.232,0.954c2.11-0.775,3.681-2.725,4.247-4.9C466.733,231.748,458.852,223.748,452.934,230.58z"/>
					</g>
					<path style="fill:#9F8300;" d="M378.452,195.493c0,0-11.439-16.858-29.582-14.162c0,0-0.913,12.166,11.279,17.434l14.276,3.366       c0,0-10.352,7.046-10.529,18.797c0,0,9.9,6.802,19.23-13.261c0,0,18.213,15.955,25.684,8.105c0,0-2.39-8.12-17.128-13.168       c0,0,23.107-3.794,23.203-15.257c0,0-9.786-8.323-25.064,6.353c0,0,5.338-28.009-7.645-28.22       C382.176,165.48,372.501,168.989,378.452,195.493z"/>
				</g>
				<path style="opacity:0.25;fill:#300000;" d="M462.938,255.643c-4.641,10.696-11.354,20.448-19.838,28.441      c-19.505,18.367-47.881,26.861-74.294,22.233c-26.391-4.622-50.191-22.264-62.315-46.18      c-7.308-14.422-10.336-31.712-5.371-46.963c-0.303,2.129-0.549,4.055-0.421,5.428c0.868,8.562,4.197,16.764,8.797,23.984      c8.697,13.716,22.415,24.431,38.204,28.256c20.046,4.869,40.904-1.444,60.624-7.515      C426.065,257.897,444.901,252.552,462.938,255.643z"/>
			</g>
			<g>
				<g>
					<path style="fill:#9F8300;" d="M203.384,177.895l-8.413,4.354l-5.131,2.665l-9.341,4.854l-3.414,1.787l-6.139,3.171       l-18.567-45.979c-7.999,1.861-29.592,1.702-37.301-1.193c-6.451-2.432-12.606-6.194-16.636-11.788       c-4.03-5.594-5.639-13.236-2.897-19.552c-3.434-1.483-5.855-4.4-7.375-7.824c-1.494-3.417-1.988-7.21-2.102-10.929       c-0.16-5.776,0.685-11.739,3.766-16.613c3.056-4.88,8.751-8.38,14.472-7.625c-1.403-6.605-0.709-13.511,2.211-19.595       c2.13-4.486,5.129-8.638,8.914-11.841c7.224-6.098,17.421-8.445,26.589-6.151c9.136,2.313,17.02,9.208,20.51,17.979       c6.879-6.401,15.138-10.875,24.468-9.812c9.306,1.056,18.11,6.972,21.945,15.541c1.92,4.325,2.595,9.147,2.474,13.867       c-0.249,9.464-3.647,18.794-9.516,26.203c6.482-0.426,12.818,3.967,15.304,9.98c2.487,6.013,1.473,13.127-1.803,18.746       c-3.27,5.594-8.623,9.82-14.478,12.614c-7.733,3.682-16.537,5.067-25.033,3.957L203.384,177.895z"/>
					<polygon style="fill:#300000;" points="180.499,189.767 177.085,191.554 159.622,148.253      "/>
					<polygon style="fill:#300000;" points="194.971,182.248 189.84,184.913 166.943,147.462      "/>
					<path style="fill:#300000;" d="M98.318,106.742c-0.514,0-0.939-0.405-0.961-0.923c-0.235-5.711,2.038-11.119,5.931-14.111       c4.564-3.507,11.283-3.303,14.979,0.451c0.373,0.379,0.368,0.988-0.011,1.361c-0.378,0.374-0.988,0.37-1.362-0.011       c-2.985-3.034-8.68-3.158-12.432-0.274c-3.405,2.617-5.39,7.408-5.181,12.504c0.022,0.531-0.391,0.98-0.923,1.001       C98.346,106.742,98.332,106.742,98.318,106.742z"/>
					<path style="fill:#300000;" d="M111.633,87.209c-0.033,0-0.066-0.001-0.101-0.005c-0.529-0.055-0.913-0.529-0.858-1.058       c0.55-5.281,4.47-10.083,9.534-11.678c5.062-1.596,11.029,0.094,14.505,4.106c0.349,0.402,0.305,1.01-0.097,1.358       c-0.403,0.348-1.01,0.305-1.358-0.098c-2.989-3.451-8.117-4.899-12.472-3.53c-4.354,1.372-7.725,5.5-8.196,10.041       C112.538,86.841,112.12,87.209,111.633,87.209z"/>
					<path style="fill:#300000;" d="M128.473,60.728c-0.508,0-0.933-0.397-0.961-0.91c-0.31-5.636,2.92-11.169,7.855-13.457       c5.117-2.371,11.729-0.833,15.056,3.5c0.324,0.422,0.245,1.026-0.177,1.35c-0.423,0.325-1.026,0.244-1.351-0.177       c-2.802-3.647-8.389-4.934-12.718-2.926c-4.238,1.964-7.011,6.735-6.742,11.604c0.029,0.531-0.378,0.985-0.909,1.014       C128.509,60.728,128.49,60.728,128.473,60.728z"/>
					<path style="fill:#300000;" d="M147.675,80.03c-0.021,0-0.041,0-0.062-0.002c-0.531-0.034-0.935-0.491-0.9-1.022       c0.339-5.358,4.865-10.323,10.528-11.548c5.034-1.09,10.863,0.598,15.213,4.406c0.399,0.351,0.44,0.959,0.09,1.359       c-0.352,0.4-0.958,0.439-1.359,0.09c-3.898-3.413-9.082-4.937-13.535-3.973c-4.853,1.05-8.728,5.258-9.015,9.788       C148.603,79.638,148.179,80.03,147.675,80.03z"/>
					<path style="fill:#300000;" d="M163.562,68.25c-0.117,0-0.236-0.021-0.352-0.067c-0.495-0.194-0.739-0.753-0.545-1.248       c2.04-5.203,6.702-9.164,12.165-10.338c5.459-1.176,11.34,0.521,15.338,4.427c0.381,0.372,0.388,0.981,0.016,1.362       c-0.373,0.381-0.981,0.387-1.361,0.016c-3.488-3.407-8.822-4.945-13.588-3.922c-4.767,1.024-8.996,4.619-10.776,9.158       C164.311,68.018,163.947,68.25,163.562,68.25z"/>
					<path style="fill:#300000;" d="M129.365,114.545c-0.126,0-0.254-0.025-0.377-0.078c-0.489-0.208-0.718-0.774-0.509-1.263       c0.501-1.177,1.02-2.394,1.845-3.484c1.433-1.894,3.753-3.281,6.71-4.013c6.538-1.619,13.812,0.444,18.527,5.254       c0.372,0.38,0.366,0.99-0.014,1.362c-0.381,0.373-0.989,0.366-1.361-0.013c-4.247-4.332-10.797-6.189-16.689-4.734       c-1.761,0.436-4.168,1.363-5.638,3.306c-0.682,0.901-1.152,2.007-1.608,3.077C130.096,114.326,129.739,114.545,129.365,114.545       z"/>
					<path style="fill:#300000;" d="M146.062,107.037c-0.086,0-0.174-0.012-0.26-0.036c-0.513-0.143-0.812-0.674-0.669-1.187       c1.7-6.083,7.028-10.864,13.261-11.896c6.229-1.028,12.816,1.775,16.387,6.985c0.301,0.439,0.189,1.038-0.25,1.339       c-0.438,0.3-1.037,0.188-1.338-0.25c-3.106-4.534-9.061-7.072-14.484-6.174c-5.422,0.898-10.241,5.222-11.72,10.515       C146.869,106.758,146.482,107.037,146.062,107.037z"/>
					<path style="fill:#300000;" d="M169.211,113.753c-0.011,0-0.021,0-0.032,0c-0.531-0.017-0.948-0.462-0.932-0.994       c0.177-5.417,3.198-10.65,7.697-13.333c4.716-2.812,10.879-2.74,15.339,0.175c0.444,0.292,0.569,0.888,0.278,1.333       c-0.29,0.445-0.887,0.569-1.333,0.279c-3.857-2.523-9.201-2.576-13.298-0.133c-3.949,2.355-6.603,6.963-6.758,11.741       C170.155,113.342,169.728,113.753,169.211,113.753z"/>
					<path style="fill:#300000;" d="M133.78,140.439c-0.339,0-0.667-0.179-0.843-0.496c-2.837-5.118-8.451-8.473-14.302-8.549       c-3.087-0.045-7.143,1.083-8.641,4.38c-0.221,0.483-0.79,0.701-1.275,0.478c-0.484-0.22-0.698-0.791-0.479-1.275       c1.884-4.141,6.742-5.572,10.42-5.508c6.529,0.084,12.794,3.83,15.96,9.541c0.258,0.465,0.09,1.051-0.375,1.309       C134.099,140.401,133.938,140.439,133.78,140.439z"/>
					<path style="fill:#300000;" d="M162.083,134.898c-0.345,0-0.679-0.186-0.852-0.512c-2.585-4.865-7.812-8.143-13.316-8.35       c-4.277-0.161-9.505,2.073-10.761,6.532c-0.144,0.512-0.681,0.811-1.188,0.666c-0.513-0.144-0.811-0.676-0.666-1.188       c1.538-5.464,7.529-8.127,12.687-7.934c6.178,0.233,12.044,3.912,14.945,9.372c0.249,0.469,0.071,1.052-0.398,1.302       C162.39,134.862,162.235,134.898,162.083,134.898z"/>
					<path style="fill:#300000;" d="M180.401,131.625c-0.047,0-0.095-0.003-0.143-0.01c-0.526-0.078-0.889-0.568-0.811-1.094       c0.47-3.167,1.162-6.779,3.429-9.577c1.558-1.923,3.827-3.419,6.936-4.575c2.239-0.833,4.098-1.187,5.845-1.109       c2.288,0.1,4.358,1.009,5.681,2.494c0.354,0.397,0.319,1.006-0.078,1.36c-0.396,0.352-1.005,0.319-1.359-0.079       c-0.979-1.099-2.557-1.773-4.327-1.851c-1.48-0.063-3.1,0.25-5.089,0.99c-2.777,1.033-4.776,2.335-6.111,3.982       c-1.961,2.42-2.587,5.733-3.021,8.648C181.282,131.281,180.871,131.625,180.401,131.625z"/>
				</g>
				<g>
					<path style="fill:#9F8300;" d="M302.495,183.689l-9.458-0.537l-5.773-0.319l-10.511-0.578l-3.849-0.201l-6.898-0.397       l7.431-49.026c-7.832-2.471-26.335-13.602-31.497-20.019c-4.313-5.378-7.696-11.75-8.316-18.616       c-0.62-6.867,1.886-14.263,7.462-18.303c-2.2-3.025-2.799-6.768-2.364-10.489c0.454-3.702,1.96-7.217,3.756-10.477       c2.803-5.052,6.567-9.755,11.7-12.381c5.115-2.644,11.798-2.757,16.338,0.806c2.156-6.399,6.269-11.99,11.88-15.739       c4.117-2.776,8.812-4.823,13.701-5.652c9.323-1.57,19.294,1.602,26.016,8.244c6.686,6.642,9.96,16.591,8.498,25.917       c9.18-2.007,18.566-1.652,26.055,4.014c7.471,5.648,12.037,15.221,10.974,24.549c-0.55,4.7-2.424,9.194-4.931,13.195       c-5.033,8.019-12.708,14.319-21.531,17.707c5.796,2.934,9.012,9.94,8.091,16.382c-0.921,6.441-5.416,12.048-11.097,15.216       c-5.663,3.15-12.422,4.061-18.883,3.484c-8.53-0.768-16.812-4.059-23.559-9.34L302.495,183.689z"/>
					<polygon style="fill:#300000;" points="276.754,182.255 272.905,182.055 279.923,135.895      "/>
					<polygon style="fill:#300000;" points="293.037,183.152 287.264,182.833 286.626,138.942      "/>
					<path style="fill:#300000;" d="M248.787,69.089c-0.153,0-0.31-0.037-0.455-0.115c-0.468-0.251-0.644-0.835-0.393-1.304       c2.705-5.035,7.414-8.532,12.29-9.125c5.713-0.696,11.392,2.9,12.66,8.015c0.128,0.516-0.187,1.039-0.703,1.167       c-0.51,0.129-1.038-0.186-1.166-0.703c-1.024-4.131-5.848-7.143-10.559-6.566c-4.264,0.519-8.412,3.632-10.825,8.124       C249.463,68.905,249.131,69.089,248.787,69.089z"/>
					<path style="fill:#300000;" d="M293.014,64.377c-0.457,0-0.862-0.326-0.946-0.791c-0.816-4.492-4.491-8.353-8.937-9.389       c-4.44-1.036-9.448,0.8-12.167,4.468c-0.316,0.427-0.92,0.517-1.347,0.2c-0.428-0.316-0.517-0.919-0.2-1.347       c3.161-4.266,8.979-6.401,14.151-5.198c5.17,1.206,9.444,5.696,10.394,10.92c0.096,0.523-0.252,1.025-0.775,1.12       C293.129,64.373,293.07,64.377,293.014,64.377z"/>
					<path style="fill:#300000;" d="M321.146,47.607c-0.48,0-0.896-0.358-0.955-0.847c-0.555-4.566-4.709-8.517-9.457-8.994       c-4.635-0.465-9.463,2.228-11.71,6.554c-0.244,0.472-0.827,0.655-1.298,0.411c-0.473-0.245-0.656-0.826-0.411-1.298       c2.602-5.009,8.193-8.13,13.612-7.582c5.607,0.564,10.517,5.254,11.176,10.678c0.064,0.528-0.312,1.008-0.84,1.072       C321.225,47.605,321.185,47.607,321.146,47.607z"/>
					<path style="fill:#300000;" d="M328.946,77.946c-0.405,0-0.781-0.257-0.915-0.663c-1.618-4.924-5.307-8.875-9.627-10.312       c-4.709-1.564-10.188,0.082-12.742,3.834c-0.299,0.439-0.897,0.556-1.338,0.254c-0.439-0.299-0.554-0.898-0.254-1.337       c3.021-4.439,9.446-6.409,14.941-4.579c4.962,1.649,9.018,5.962,10.85,11.537c0.166,0.505-0.109,1.05-0.614,1.216       C329.147,77.931,329.046,77.946,328.946,77.946z"/>
					<path style="fill:#300000;" d="M349.696,77.587c-0.425,0-0.813-0.283-0.929-0.713c-1.268-4.708-5.074-8.749-9.698-10.294       c-4.625-1.545-10.096-0.604-13.938,2.396c-0.42,0.327-1.026,0.252-1.352-0.167c-0.327-0.419-0.253-1.024,0.166-1.352       c4.405-3.437,10.432-4.475,15.733-2.703c5.301,1.771,9.495,6.224,10.947,11.62c0.139,0.514-0.166,1.042-0.68,1.18       C349.863,77.576,349.779,77.587,349.696,77.587z"/>
					<path style="fill:#300000;" d="M294.479,102.927c-0.433,0-0.826-0.294-0.934-0.733c-1.451-5.893-6.144-10.827-11.956-12.572       c-1.735-0.522-4.278-0.95-6.534-0.025c-1.043,0.427-2.013,1.14-2.95,1.829c-0.43,0.314-1.031,0.223-1.347-0.206       c-0.314-0.429-0.223-1.031,0.206-1.346c1.031-0.758,2.099-1.542,3.36-2.059c2.198-0.901,4.903-0.912,7.819-0.037       c6.451,1.938,11.66,7.416,13.271,13.956c0.128,0.517-0.188,1.039-0.704,1.166C294.634,102.917,294.556,102.927,294.479,102.927       z"/>
					<path style="fill:#300000;" d="M316.116,103.888c-0.503,0-0.926-0.39-0.96-0.899c-0.365-5.483-4.199-10.701-9.323-12.688       c-5.121-1.987-11.471-0.72-15.439,3.082c-0.384,0.367-0.992,0.355-1.361-0.029c-0.368-0.384-0.354-0.994,0.029-1.362       c4.56-4.371,11.581-5.771,17.469-3.487c5.889,2.285,10.128,8.054,10.548,14.356c0.035,0.531-0.366,0.989-0.896,1.025       C316.159,103.887,316.138,103.888,316.116,103.888z"/>
					<path style="fill:#300000;" d="M331.081,111.531c-0.355,0-0.697-0.198-0.865-0.538c-2.029-4.123-6.58-6.885-11.333-6.885       c-0.016,0-0.029,0-0.044,0c-4.6,0.016-9.229,2.632-11.795,6.664c-0.286,0.449-0.881,0.581-1.329,0.295       c-0.449-0.286-0.581-0.881-0.296-1.33c2.91-4.572,8.175-7.538,13.413-7.556c0.017,0,0.033,0,0.05,0       c5.472,0,10.716,3.194,13.062,7.96c0.234,0.477,0.038,1.054-0.439,1.289C331.368,111.499,331.224,111.531,331.081,111.531z"/>
					<path style="fill:#300000;" d="M262.15,116.146c-0.01,0-0.019,0-0.028,0c-0.531-0.015-0.95-0.458-0.936-0.989       c0.165-5.849-2.958-11.595-7.955-14.64c-2.606-1.586-6.701-2.703-9.669-0.63c-0.433,0.305-1.035,0.198-1.341-0.238       c-0.304-0.436-0.197-1.037,0.239-1.341c3.73-2.605,8.673-1.324,11.772,0.564c5.577,3.398,9.062,9.812,8.879,16.338       C263.098,115.733,262.669,116.146,262.15,116.146z"/>
					<path style="fill:#300000;" d="M289.331,125.787c-0.016,0-0.03,0-0.045-0.001c-0.531-0.024-0.942-0.475-0.918-1.006       c0.252-5.503-2.578-10.986-7.21-13.968c-3.6-2.317-9.236-3.055-12.586,0.143c-0.384,0.367-0.995,0.354-1.361-0.032       c-0.367-0.385-0.354-0.995,0.031-1.362c4.108-3.918,10.634-3.152,14.959-0.369c5.198,3.346,8.374,9.499,8.091,15.675       C290.269,125.385,289.843,125.787,289.331,125.787z"/>
					<path style="fill:#300000;" d="M306.763,132.297c-0.213,0-0.427-0.07-0.605-0.215c-0.413-0.335-0.477-0.941-0.142-1.354       c2.016-2.486,4.449-5.243,7.827-6.498c2.319-0.861,5.034-0.994,8.299-0.406c2.352,0.424,4.13,1.066,5.595,2.021       c1.917,1.25,3.237,3.086,3.62,5.04c0.102,0.522-0.238,1.028-0.76,1.13c-0.52,0.101-1.027-0.237-1.131-0.76       c-0.283-1.445-1.297-2.829-2.781-3.796c-1.242-0.81-2.795-1.362-4.885-1.739c-2.915-0.526-5.299-0.423-7.287,0.316       c-2.922,1.085-5.146,3.617-7.001,5.905C307.321,132.176,307.043,132.297,306.763,132.297z"/>
				</g>
			</g>
			<g>
				<g>
					<path style="fill:#FFC76D;" d="M430.195,290.349c0,0-14.512,104.603-86.111,146.204       c-70.802,41.1-148.391-22.688-150.142-24.137c-0.021-0.024-0.021-0.024-0.021-0.024l58.467-33.972       c0,0,36.347,26.066,75.66-3.605c39.291-29.673,40.255-81.596,40.255-81.596L430.195,290.349z"/>
					<path style="fill:#CCB654;" d="M360.381,448.016c-85.593,45.721-140.323,13.14-166.44-35.6       c1.751,1.448,79.341,65.237,150.142,24.137c71.599-41.601,86.111-146.204,86.111-146.204S445.995,402.319,360.381,448.016z"/>
				</g>
				<path style="fill:#300000;" d="M295.599,396.7c-28.812,0-43.467-17.709-43.646-17.931c-0.193-0.24-0.155-0.591,0.085-0.784      c0.239-0.192,0.591-0.155,0.784,0.084c0.216,0.268,22.106,26.66,65.186,14.148c23.902-6.943,36.573-29.206,42.994-46.66      c7.572-20.585,9.135-42.264,6.759-52.211c-0.071-0.299,0.113-0.601,0.413-0.672c0.311-0.073,0.601,0.114,0.673,0.413      c2.413,10.105,0.851,32.064-6.798,52.854c-6.51,17.695-19.381,40.273-43.73,47.346C309.964,395.716,302.387,396.7,295.599,396.7      z"/>
			</g>
			<g>
				<path style="fill:#9F8300;" d="M221.152,276.385c0,0-0.924-82.678,11.547-84.987c12.471-2.309-6.928,85.449-6.928,85.449      s37.413-80.368,51.731-75.287c14.318,5.081-44.341,76.673-44.341,76.673s67.897-43.417,71.13-30.946      c3.233,12.471-70.207,40.184-70.207,40.184L221.152,276.385z"/>
				<g>
					<g>
						<path style="fill:#FF8B00;" d="M260.887,319.803c-6.485,13.405-134.431,103.469-134.431,103.469s12.482-40.975,26.892-81.353        c0.298-0.868,0.624-1.737,0.923-2.605c2.361-6.567,4.749-13.079,7.137-19.375c0.353-0.895,0.706-1.791,1.031-2.686        c3.311-8.548,6.567-16.661,9.715-23.825c0.38-0.896,0.76-1.764,1.167-2.605c6.458-14.463,12.293-24.666,16.417-26.457        c17.096-7.381,33.268,0.923,48.03,11.56C252.556,286.535,267.345,306.398,260.887,319.803z"/>
					</g>
					<g>
						<path style="fill:#300000;" d="M181.623,353.913c-0.271,0.271-0.597,0.38-0.95,0.38c-0.353,0-0.706-0.136-0.977-0.407        c-4.722-4.993-11.533-8.684-19.674-10.692c-2.198-0.543-4.423-0.95-6.675-1.275c0.298-0.868,0.624-1.737,0.923-2.605        c2.144,0.298,4.288,0.706,6.404,1.248c8.656,2.144,15.902,6.105,21.003,11.451        C182.193,352.556,182.166,353.397,181.623,353.913z"/>
					</g>
					<g>
						<path style="fill:#300000;" d="M189.601,327.32c-0.271,0.434-0.706,0.678-1.194,0.678c-0.217,0-0.461-0.054-0.678-0.19        c-8.005-4.613-17.095-7.299-26.322-7.869c0.353-0.895,0.706-1.791,1.031-2.686c9.335,0.733,18.534,3.528,26.647,8.195        C189.737,325.828,189.954,326.669,189.601,327.32z"/>
					</g>
					<g>
						<path style="fill:#300000;" d="M201.921,301.215c-0.271,0.298-0.651,0.434-1.004,0.434c-0.326,0-0.651-0.109-0.923-0.353        c-1.954-1.818-4.505-2.876-7.761-3.88c-6.485-2.035-13.242-3.365-20.08-3.989c0.38-0.896,0.76-1.764,1.167-2.605        c6.702,0.651,13.351,1.981,19.728,3.989c3.12,0.977,6.322,2.198,8.792,4.504C202.382,299.804,202.409,300.673,201.921,301.215        z"/>
					</g>
				</g>
			</g>
			<g>
				<path style="fill:#9F8300;" d="M73.494,234.805c0,0-57.777-59.146-50.355-69.43c7.422-10.284,54.014,66.574,54.014,66.574      s-28.461-83.957-14.598-90.173c13.863-6.216,20.899,86.07,20.899,86.07s19.106-78.295,30.058-71.51      c10.952,6.784-23.009,77.552-23.009,77.552L73.494,234.805z"/>
				<g>
					<g>
						<path style="fill:#FF8B00;" d="M132.217,238.754c4.57,14.173-25.736,167.676-25.736,167.676s-19.277-38.251-36.749-77.401        c-0.384-0.834-0.748-1.687-1.132-2.521c-2.829-6.379-5.601-12.738-8.223-18.94c-0.363-0.891-0.727-1.782-1.11-2.655        c-3.51-8.468-6.76-16.584-9.432-23.938c-0.344-0.91-0.669-1.8-0.956-2.69c-5.321-14.92-8.15-26.327-6.404-30.471        c7.264-17.146,24.694-22.313,42.716-24.818C103.213,220.452,127.628,224.6,132.217,238.754z"/>
					</g>
					<g>
						<path style="fill:#300000;" d="M98.463,318.169c-0.009,0.384-0.169,0.687-0.424,0.931c-0.255,0.244-0.604,0.389-0.988,0.38        c-6.863-0.349-14.337,1.687-21.611,5.858c-1.964,1.126-3.854,2.369-5.708,3.689c-0.384-0.834-0.748-1.687-1.132-2.521        c1.756-1.265,3.588-2.451,5.493-3.521c7.74-4.429,15.716-6.569,23.097-6.228C97.938,316.795,98.499,317.422,98.463,318.169z"/>
					</g>
					<g>
						<path style="fill:#300000;" d="M85.863,293.429c0.104,0.501-0.042,0.978-0.395,1.315c-0.157,0.15-0.371,0.279-0.622,0.331        c-8.975,2.194-17.404,6.53-24.469,12.491c-0.363-0.891-0.727-1.782-1.11-2.655c7.256-5.918,15.838-10.251,24.929-12.481        C84.93,292.256,85.668,292.715,85.863,293.429z"/>
					</g>
					<g>
						<path style="fill:#300000;" d="M76.74,266.043c0.01,0.403-0.171,0.764-0.426,1.007c-0.235,0.225-0.546,0.371-0.911,0.382        c-2.669,0.035-5.244,1.032-8.292,2.555c-6.095,3.008-11.9,6.714-17.275,10.986c-0.344-0.91-0.669-1.8-0.956-2.69        c5.296-4.159,11.022-7.79,17.02-10.742c2.931-1.449,6.09-2.778,9.469-2.816C76.098,264.704,76.718,265.314,76.74,266.043z"/>
					</g>
				</g>
			</g>
		</g>
		<path style="fill:#FFFFFF;" d="M412.68,135.546l-14.829,5.302c-0.457,0.164-0.817,0.523-0.981,0.981l-5.302,14.829    c-0.513,1.434-2.541,1.434-3.053,0l-5.302-14.829c-0.163-0.457-0.523-0.817-0.981-0.981l-14.829-5.302    c-1.434-0.513-1.434-2.541,0-3.053l14.829-5.302c0.457-0.164,0.817-0.524,0.981-0.981l5.302-14.829    c0.513-1.434,2.541-1.434,3.053,0l5.302,14.829c0.164,0.457,0.523,0.817,0.981,0.981l14.829,5.302    C414.114,133.006,414.114,135.034,412.68,135.546z"/>
		<path style="fill:#FFFFFF;" d="M136.53,357.252l-14.829,5.302c-0.457,0.164-0.817,0.523-0.981,0.981l-5.302,14.829    c-0.513,1.434-2.541,1.434-3.054,0l-5.302-14.829c-0.164-0.457-0.523-0.817-0.981-0.981l-14.829-5.302    c-1.434-0.513-1.434-2.541,0-3.053l14.829-5.302c0.457-0.163,0.817-0.523,0.981-0.981l5.302-14.829    c0.513-1.434,2.541-1.434,3.054,0l5.302,14.829c0.164,0.457,0.523,0.817,0.981,0.981l14.829,5.302    C137.964,354.711,137.964,356.739,136.53,357.252z"/>
	</g>
</g>















</svg>
