<svg id="Layer_1" enable-background="new 0 0 496 496" height="512" viewBox="0 0 496 496" width="512" xmlns="http://www.w3.org/2000/svg"><path d="m248.001 0c-136.336-.002-248.002 110.81-248.001 248.002.001 137.061 110.919 247.998 248 247.998 137.061 0 248-110.919 248-248 0-137.06-110.917-247.998-247.999-248zm137.042 329.816c0 8.837-7.163 16-16 16h-242.086c-8.837 0-16-7.163-16-16v-162.762c0-14.23 17.26-21.368 27.314-11.313l37.894 37.894c6.248 6.248 16.379 6.248 22.627 0l37.895-37.894c6.248-6.248 16.379-6.248 22.627 0l37.895 37.894c6.248 6.248 16.379 6.248 22.627 0l37.622-37.623c10.623-10.623 27.585-2.929 27.585 11.042z"/></svg>