<svg xmlns="http://www.w3.org/2000/svg" version="1.1" xmlns:xlink="http://www.w3.org/1999/xlink" width="512" height="512" x="0" y="0" viewBox="0 0 512 512" style="enable-background:new 0 0 512 512" xml:space="preserve" class=""><rect width="512" height="512" fill="#eee8e0" shape="square" transform="matrix(1,0,0,1,0,0)"></rect><g transform="matrix(0.84,0,0,0.84,91.20751953125006,40.96007812500008)"><path fill="#f9eac7" d="M373.844 503.871H24.129c-8.84 0-16-7.16-16-16v-33.016c0-8.835 7.16-16 16-16h349.71v65.016zm0 0" opacity="1" data-original="#f9eac7" class=""></path><path fill="#fff5d7" d="M373.844 503.871H24.129c-8.84 0-16-7.16-16-16v-8.379h365.71v24.38zm0 0" opacity="1" data-original="#fff5d7"></path><path fill="#f4dbb3" d="M8.129 455.11v8.128h365.71v-24.383H24.384c-8.977 0-16.254 7.278-16.254 16.254zm0 0" opacity="1" data-original="#f4dbb3"></path><path fill="#ffc269" d="M16.254 0H373.84c8.976 0 16.254 7.277 16.254 16.254v422.601H24.383C10.914 438.855 0 449.773 0 463.238v16.254V16.254C0 7.277 7.277 0 16.254 0zm0 0" opacity="1" data-original="#ffc269" class=""></path><path fill="#ffffff" d="M146.285 284.445c0 8.977 7.278 16.254 16.254 16.254h97.524c8.976 0 16.253-7.277 16.253-16.254V243.81c22.446 0 40.637-18.192 40.637-40.633 0-22.442-18.191-40.637-40.637-40.637-3.523 0-6.882.59-10.144 1.434-6.531-24.22-28.586-42.067-54.871-42.067-26.281 0-48.34 17.848-54.867 42.067-3.262-.844-6.621-1.434-10.149-1.434-22.441 0-40.633 18.195-40.633 40.637 0 22.441 18.192 40.633 40.633 40.633zm0 0" opacity="1" data-original="#ffffff"></path><path fill="#f9eac7" d="M276.316 349.46h-130.03a8.122 8.122 0 0 1-8.126-8.128 8.119 8.119 0 0 1 8.125-8.125h130.031a8.122 8.122 0 0 1 8.13 8.125 8.125 8.125 0 0 1-8.13 8.129zM251.938 390.094h-81.27c-4.492 0-8.129-3.633-8.129-8.125s3.637-8.13 8.129-8.13h81.27c4.492 0 8.125 3.638 8.125 8.13s-3.633 8.125-8.125 8.125zm0 0" opacity="1" data-original="#f9eac7" class=""></path><path fill="#ffffff" d="M276.57 81.27H146.031c-8.836 0-16-7.165-16-16v-.508c0-8.836 7.164-16 16-16h130.54c8.84 0 16 7.164 16 16v.508c0 8.835-7.165 16-16 16zm0 0" opacity="1" data-original="#ffffff"></path><path fill="#ff8b5a" d="M97.523 73.145h-8.125c-4.492 0-8.128-3.637-8.128-8.13s3.636-8.124 8.128-8.124h8.125c4.493 0 8.13 3.632 8.13 8.125s-3.637 8.129-8.13 8.129zM333.207 73.145h-8.129c-4.488 0-8.125-3.637-8.125-8.13s3.637-8.124 8.125-8.124h8.129c4.492 0 8.129 3.632 8.129 8.125s-3.637 8.129-8.129 8.129zm0 0" opacity="1" data-original="#ff8b5a" class=""></path><path fill="#ffa95f" d="M32.508 349.46V0H16.254C7.277 0 0 7.277 0 16.254v446.984c0-13.465 10.914-24.383 24.383-24.383h365.71v-24.378H97.524c-35.906 0-65.015-29.11-65.015-65.016zm0 0" opacity="1" data-original="#ffa95f"></path><path fill="#ff8b5a" d="M373.844 512H24.383C10.938 512 0 501.062 0 487.617V455.11c0-13.441 10.938-24.379 24.383-24.379h357.586a8.119 8.119 0 0 1 8.125 8.125 8.122 8.122 0 0 1-8.125 8.13H24.383c-4.485 0-8.13 3.644-8.13 8.124v32.508c0 4.485 3.645 8.13 8.13 8.13H373.84a8.125 8.125 0 0 1 8.129 8.124 8.122 8.122 0 0 1-8.125 8.129zm0 0" opacity="1" data-original="#ff8b5a" class=""></path><g fill="#f9eac7"><path d="M246.953 260.063 259.645 222c1.418-4.262-.883-8.863-5.137-10.277a8.096 8.096 0 0 0-10.278 5.132l-14.402 43.208H219.43V211.3a8.122 8.122 0 0 0-8.13-8.125 8.119 8.119 0 0 0-8.124 8.125v48.762h-10.399l-14.402-43.208a8.093 8.093 0 0 0-10.277-5.132c-4.254 1.414-6.559 6.015-5.137 10.277l12.687 38.063h-29.363v24.382c0 8.977 7.278 16.254 16.254 16.254h8.129v-8.129c0-8.976 7.277-16.254 16.254-16.254h89.394v-16.253zM146.285 218.242c0-6.625-2.71-12.898-7.45-17.527-5.855-5.719-13.476-15.649-16.327-30.36-10.172 7.383-16.856 19.29-16.856 32.82 0 22.442 18.192 40.634 40.633 40.634zM146.285 81.27h130.031c8.98 0 16.254-7.278 16.254-16.254H130.031c0 8.976 7.278 16.254 16.254 16.254zm0 0" fill="#f9eac7" opacity="1" data-original="#f9eac7" class=""></path></g></g></svg>