<svg height="512" viewBox="0 0 128 128" width="512" xmlns="http://www.w3.org/2000/svg"><g><path d="m34.8 108.342 26.467-13.362a6.069 6.069 0 0 1 5.466 0l26.472 13.362a6.066 6.066 0 0 0 8.8-5.414v-76.928a7 7 0 0 0 -7-7h-62.005a7 7 0 0 0 -7 7v76.927a6.066 6.066 0 0 0 8.8 5.415z" fill="#ffb32c"/><path d="m82.534 52.985a1.439 1.439 0 0 0 -.8-2.454l-10.613-1.542a1.438 1.438 0 0 1 -1.083-.787l-4.748-9.62a1.439 1.439 0 0 0 -2.58 0l-4.748 9.618a1.438 1.438 0 0 1 -1.083.787l-10.616 1.544a1.439 1.439 0 0 0 -.8 2.454l7.682 7.488a1.44 1.44 0 0 1 .413 1.274l-1.81 10.573a1.438 1.438 0 0 0 2.087 1.516l9.5-4.992a1.439 1.439 0 0 1 1.338 0l9.5 4.992a1.438 1.438 0 0 0 2.087-1.516l-1.821-10.573a1.44 1.44 0 0 1 .413-1.274z" fill="#fffcee"/></g></svg>