<svg id="icon" height="512" viewBox="0 0 100 100" width="512" xmlns="http://www.w3.org/2000/svg"><path d="m6.498 58.466h70.15c.813 0 1.473.659 1.473 1.473v8.275c0 .813-.659 1.473-1.473 1.473h-70.15c-.813 0-1.472-.659-1.472-1.472v-8.277c-.001-.813.658-1.472 1.472-1.472z"/><path d="m6.498 75.32h70.15c.813 0 1.473.659 1.473 1.473v8.275c0 .813-.659 1.473-1.473 1.473h-70.15c-.813 0-1.472-.659-1.472-1.472v-8.277c-.001-.812.658-1.472 1.472-1.472z"/><path d="m94.975 47.189v37.88c0 .813-.659 1.473-1.473 1.473h-8.242c-.813 0-1.473-.659-1.473-1.473v-30.763c0-.813-.659-1.473-1.473-1.473h-75.816c-.813 0-1.472-.659-1.472-1.472v-3.298c0-.539.294-1.034.767-1.292l60.741-33.132c.225-.123.471-.185.728-.18 3.413.061 27.713 1.625 27.713 33.73z"/></svg>