<?xml version="1.0" encoding="iso-8859-1"?>
<!-- Generator: Adobe Illustrator 27.5.0, SVG Export Plug-In . SVG Version: 6.00 Build 0)  -->
<svg xmlns="http://www.w3.org/2000/svg" xmlns:xlink="http://www.w3.org/1999/xlink" version="1.1" id="Capa_1" x="0px" y="0px" viewBox="0 0 512 512" style="enable-background:new 0 0 512 512;" xml:space="preserve">
<g>
	<path style="fill:#FFFFFF;" d="M256.014,512c-64.949,0-126.886-24.375-174.4-68.634c-10.818-10.037-20.845-21.128-29.775-32.944   c-9.354-12.322-17.664-25.664-24.676-39.624c-2.355-4.621-4.663-9.584-6.818-14.664l-1.248-2.975   c-2.68-6.48-5.16-13.331-7.367-20.347C3.946,308.077,0,282.229,0,255.986c0-50.958,14.939-100.177,43.202-142.339   c21.287-31.764,49.923-58.806,82.812-78.2C165.198,12.262,210.158,0,256.014,0c39.769,0,77.872,8.866,113.253,26.354   c23.371,11.536,44.845,26.59,63.818,44.742C483.977,119.875,512,185.533,512,255.986c0,26.144-3.935,51.942-11.698,76.677   c-2.117,6.788-4.605,13.683-7.386,20.465c-0.421,1.023-0.837,2.007-1.255,2.991c-2.099,4.951-4.386,9.892-6.8,14.689   c-6.646,13.265-14.608,26.148-23.652,38.264c-9.498,12.726-20.297,24.671-32.096,35.503C381.785,488.054,320.308,512,256.014,512z"/>
	<g>
		<g>
			<path style="fill:#5B8396;" d="M493.669,257.31c0,24.943-3.829,49.013-10.923,71.619c-1.436,4.617-16.131,8.22-17.82,12.724     l-1.52,0.957l-8.586,5.433l-4.448,2.815l-21.621,13.682l-40.454,25.59l-5.461,3.463l-19.791,12.528l-3.125,1.971l-25.731,16.3     l-2.477,1.548l-22.775,14.414l-12.049,7.629l-45.916,29.053c-0.45-1.154-15.906-11.514-38.512-26.238     c-4.251-2.787-8.755-5.715-13.485-8.755c-2.815-1.83-5.743-3.716-8.699-5.63c-1.042-0.676-2.111-1.379-3.181-2.055     c-9.544-6.165-19.65-12.668-29.982-19.34c-0.873-0.563-1.745-1.126-2.646-1.689c-4.082-2.646-8.22-5.293-12.331-7.939     c-1.21-0.788-2.421-1.548-3.632-2.337c-4.617-2.984-9.234-5.94-13.823-8.896c-1.745-1.126-3.491-2.224-5.208-3.35     c-14.301-9.206-28.152-18.158-40.623-26.266c-7.601-4.898-14.667-9.516-21.03-13.682c-1.436-0.957-2.871-1.886-4.251-2.815     c-2.928-1.914-5.659-3.744-8.192-5.433c-11.599-7.714-18.721-12.725-18.974-13.541c-7.122-22.634-10.951-46.76-10.951-71.759     c0-49.21,14.864-94.928,40.342-132.934c19.96-29.785,46.423-54.812,77.361-73.055c35.584-21.057,77.08-33.106,121.419-33.106     c37.977,0,73.871,8.84,105.767,24.605c10.685,5.274,3.356,29.494,13.058,36.242c10.288,7.156,37.541-3.072,46.568,5.563     C465.377,128.148,493.669,189.435,493.669,257.31z"/>
		</g>
		<g>
			<g>
				<g>
					<path style="fill:#2C0000;" d="M419.968,84.625l-52.278,33.135l-8.896,5.63L317.1,81.698l7.854-7.066l35.387-31.812       C382.357,53.686,402.429,67.846,419.968,84.625z"/>
				</g>
				<g>
					<g>
						<path style="fill:#F7EDE5;" d="M381.793,132.005c0,0-30.207,26.604-155.258,99.911        c-125.079,73.308-189.772,97.04-189.772,97.04c0.028-0.704,0.056-1.435,0.141-2.139c0.028-0.449,1.914-1.911,1.967-2.354        c0.053-0.444-1.728,0.131-1.657-0.321c12.499-84.935,270.54-266.881,270.54-266.881l65.312,65.932l-2.871,2.798l4.391-1.25        L381.793,132.005z"/>
					</g>
					<g>
						<g>
							<path style="fill:#2C0000;" d="M374.587,124.742L36.904,326.817c0.056-0.901,0.169-1.774,0.31-2.674l335.853-200.949         L374.587,124.742z"/>
						</g>
					</g>
				</g>
			</g>
			<g>
				<path style="fill:#2C0000;" d="M453.843,342.61c-0.704,1.83,7.201,3.632,6.469,5.433c-0.394,0.957,2.191,1.886,1.797,2.815      c-1.971,4.645,8.476,9.206,6.224,13.682c-6.306,12.584-13.738,24.548-22.099,35.753c-8.952,11.993-19.003,23.085-29.982,33.163      c-42.566,39.103-99.32,62.976-161.677,62.976c-62.948,0-120.181-24.323-162.887-64.102      c-10.135-9.403-19.453-19.706-27.814-30.77c-8.783-11.57-16.497-23.957-23.056-37.02c-2.28-4.476,15.658-5.064,13.687-9.709      c-0.394-0.929,2.071-9.106,1.677-10.063c-0.732-1.802,5.707-3.202,5.031-5.031L453.843,342.61z"/>
			</g>
			<g>
				<g>
					<g>
						<path style="fill:#FF8A00;" d="M482.746,328.928c-2.027,6.503-4.335,12.865-6.897,19.115        c-0.259,0.629-5.935-0.024-6.193,0.589c-0.135,0.32,5.146,1.908,5.011,2.227c-1.971,4.645-4.082,9.206-6.334,13.682H40.817        c-2.28-4.476-4.392-9.037-6.362-13.682c-0.196-0.462,4.582-0.952,4.386-1.418c-0.198-0.47-5.371-0.916-5.569-1.397        c-2.562-6.194-4.842-12.528-6.869-18.975c0.507-0.085,1.014-0.141,1.548-0.141H482.746z"/>
					</g>
				</g>
				<g>
					<g>
						<path style="fill:#2C0000;" d="M33.272,348.043h442.577c-0.394,0.957-0.788,1.886-1.182,2.815H34.455        C34.06,349.929,33.666,349,33.272,348.043z"/>
					</g>
				</g>
			</g>
			<g>
				<g>
					<g>
						<g>
							<path style="fill:#FF4401;" d="M389.182,312.842c-0.282,1.869-0.846,3.631-1.693,5.324c-0.212,0.443-2.46-1.857-2.708-1.429         c-0.206,0.355,1.592,3.44,1.369,3.791c-1.904,2.82-4.513,5.253-7.439,7.086c-5.253,3.279-11.387,4.9-17.486,6.099         c-15.794,3.138-31.905,3.913-47.981,4.654c-48.968,2.151-97.972,3.561-147.01,4.16c-24.396,0.317-48.827,0.423-73.152-1.657         c-6.557-0.564-21.681-1.622-24.149-9.448c-0.882-2.785-0.176-6.698,1.234-10.752c0-0.036,0-0.071,0.035-0.071         c2.186-6.275,10.65-17.481,12.694-21.112c0.247-0.423-4.163,3.626-3.881,3.203c9.765-16.922,24.748-30.707,41.741-40.155         c26.547-14.772,57.324-20.025,87.642-22.034c30.142-2.009,60.743-1.022,90.074,6.24c29.332,7.262,57.464,21.047,79.04,42.2         C384.07,295.391,390.415,303.711,389.182,312.842z"/>
						</g>
					</g>
					<g>
						<g>
							<path style="fill:#F7EDE5;" d="M387.489,318.165c-0.388,0.811-0.846,1.586-1.339,2.362         c-26.335-24.713-57.888-43.962-91.978-56.019c-13.185-4.654-25.277-7.756-36.911-9.413         c-15.829-2.256-32.081-2.08-47.805-1.868c-16.04,0.176-32.61,0.388-48.51,3.913c-18.579,4.125-37.792,13.22-57.147,27.04         c-16.499,11.81-27.604,23.832-33.597,36.418c2.186-6.275,5.993-12.974,8.038-16.605c0.247-0.423,0.493-0.881,0.776-1.304         c6.028-7.016,13.784-13.89,23.268-20.659c19.637-14.031,39.167-23.268,58.099-27.463c16.146-3.596,32.857-3.807,49.038-3.983         c15.829-0.212,32.187-0.423,48.193,1.904c11.845,1.692,24.078,4.795,37.44,9.554         C329.284,274.098,360.978,293.382,387.489,318.165z"/>
						</g>
					</g>
					<g>
						<g>
							<path style="fill:#F7EDE5;" d="M172.118,294.47c-4.87-4.532-13.175-6.531-22.043-6.531c-12.668,0-26.463,4.11-32.713,10.67         c-4.842,5.095-6.7,14.386-1.661,20.044c4.251,4.701,11.12,5.152,17.257,5.18l15.793,0.197c0.704,0,1.464,0.028,2.252,0.028         c7.151,0,17.342-0.675,22.691-8.079C178.536,309.25,177.861,299.791,172.118,294.47z M171.555,314.43         c-4.73,6.588-13.851,7.038-22.775,6.954l-15.793-0.197c-5.827-0.028-11.796-0.422-15.286-4.279         c-4.11-4.589-2.477-12.218,1.576-16.469c9.656-10.163,40.229-14.104,51.04-4.026         C175.074,300.861,175.637,308.799,171.555,314.43z"/>
						</g>
					</g>
				</g>
				<g>
					<g>
						<g>
							<path style="fill:#C5B55B;" d="M414.759,280.498l7.009-2.128c-0.845,18.637-3.547,38.512-17.201,51.236         c-14.892,13.935-37.329,17.145-56.923,23.141c-0.45,0.113,1.5-4.825,1.078-4.685c0.028-0.873-2.317,3.305-2.26,2.433         c1.239-18.609,9.431-36.711,22.662-49.857c12.584-12.5,29.531-20.41,47.155-22.128         C418.108,278.314,412.93,280.555,414.759,280.498z"/>
						</g>
						<g>
							<g>
								<path style="fill:#2C0000;" d="M421.768,278.145v0.225c-10.698,4.617-19.284,9.515-26.688,15.23          c-4.307,3.322-8.558,7.207-13.4,12.19c-13.569,13.963-24.999,29.728-34.036,46.957c-0.45,0.113-0.901,0.253-1.323,0.394          c0.028-0.873,0.084-1.774,0.141-2.646c8.98-16.891,20.326-32.431,33.698-46.169c4.927-5.067,9.234-9.009,13.625-12.387          c6.447-4.983,13.738-9.346,22.493-13.428C418.108,278.314,419.938,278.201,421.768,278.145z"/>
							</g>
						</g>
					</g>
					<g>
						<g>
							<path style="fill:#C5B55B;" d="M259.889,278.102l-7.009-2.128c0.845,18.637,3.547,38.512,17.201,51.236         c14.892,13.935,37.329,17.145,56.923,23.141c0.45,0.113-1.5-4.826-1.078-4.685c-0.028-0.873,2.317,3.305,2.261,2.433         c-1.239-18.609-9.431-36.711-22.662-49.857c-12.584-12.499-29.531-20.41-47.155-22.127         C256.54,275.918,261.719,278.159,259.889,278.102z"/>
						</g>
						<g>
							<g>
								<path style="fill:#2C0000;" d="M252.88,275.749v0.225c10.698,4.617,19.284,9.515,26.688,15.23          c4.307,3.322,8.558,7.207,13.4,12.19c13.569,13.963,24.999,29.728,34.036,46.957c0.45,0.113,0.901,0.253,1.323,0.394          c-0.028-0.873-0.084-1.774-0.141-2.646c-8.98-16.891-20.326-32.431-33.698-46.169c-4.927-5.067-9.234-9.009-13.626-12.387          c-6.447-4.983-13.738-9.346-22.493-13.428C256.54,275.918,254.71,275.805,252.88,275.749z"/>
							</g>
						</g>
					</g>
				</g>
				<g>
					<g>
						<g>
							<g>
								<ellipse style="fill:#FFC161;" cx="183.404" cy="409.937" rx="70.679" ry="44.804"/>
							</g>
						</g>
						<g>
							<g>
								<path style="fill:#F7EDE5;" d="M167.529,398.93l-46.901,6.644c0.507-7.122,4.532-13.682,11.092-19.171l38.005,9.459          C168.543,396.762,167.755,397.804,167.529,398.93z"/>
							</g>
							<g>
								<path style="fill:#F7EDE5;" d="M169.951,403.688l-38.399,23.901c-6.503-5.49-10.473-12.077-10.923-19.171l47.408-6.728          C168.459,402.421,169.106,403.096,169.951,403.688z"/>
							</g>
							<g>
								<path style="fill:#F7EDE5;" d="M173.47,393.862l-38.906-9.656c10.304-7.319,25.534-12.274,42.763-13.147l3.294,21.367          C177.946,392.596,175.496,393.131,173.47,393.862z"/>
							</g>
							<g>
								<path style="fill:#F7EDE5;" d="M182.872,407.066l5.574,36.006c-1.83,0.113-3.66,0.169-5.518,0.169          c-19.904,0-37.611-5.405-49.013-13.823l38.85-24.154C175.496,406.362,179.015,407.066,182.872,407.066z"/>
							</g>
							<g>
								<path style="fill:#F7EDE5;" d="M183.464,392.342l-3.322-21.395c0.929-0.056,1.858-0.056,2.787-0.056          c11.599,0,22.437,1.83,31.699,5.011l-26.97,16.779C186.335,392.483,184.899,392.371,183.464,392.342z"/>
							</g>
							<g>
								<path style="fill:#F7EDE5;" d="M191.543,393.581l26.435-16.441c7.826,3.097,14.358,7.179,19.059,11.936l-42.115,5.968          C193.964,394.482,192.81,393.975,191.543,393.581z"/>
							</g>
							<g>
								<path style="fill:#F7EDE5;" d="M197.117,402.646l46.929,11.655c-5.236,14.977-26.407,26.575-52.757,28.602l-5.574-35.978          C190.839,406.503,195.09,404.842,197.117,402.646z"/>
							</g>
							<g>
								<path style="fill:#F7EDE5;" d="M245.285,407.066c0,1.52-0.169,3.04-0.507,4.504l-46.394-11.514          c0-0.113,0.028-0.253,0.028-0.366c0-0.76-0.253-1.492-0.704-2.196l41.609-5.884          C243.146,396.284,245.285,401.52,245.285,407.066z"/>
							</g>
						</g>
					</g>
					<g>
						<g>
							<g>
								<ellipse style="fill:#FFC161;" cx="329.435" cy="410.702" rx="67.205" ry="42.601"/>
							</g>
						</g>
						<g>
							<g>
								<path style="fill:#F7EDE5;" d="M314.341,400.236l-44.596,6.317c0.482-6.772,4.31-13.009,10.547-18.229l36.137,8.994          C315.304,398.175,314.555,399.165,314.341,400.236z"/>
							</g>
							<g>
								<path style="fill:#F7EDE5;" d="M316.643,404.759l-36.512,22.726c-6.184-5.22-9.958-11.483-10.386-18.229l45.078-6.397          C315.224,403.555,315.84,404.197,316.643,404.759z"/>
							</g>
							<g>
								<path style="fill:#F7EDE5;" d="M319.989,395.417l-36.994-9.181c9.797-6.96,24.279-11.671,40.661-12.501l3.132,20.317          C324.245,394.213,321.916,394.721,319.989,395.417z"/>
							</g>
							<g>
								<path style="fill:#F7EDE5;" d="M328.929,407.972l5.3,34.236c-1.74,0.107-3.48,0.161-5.247,0.161          c-18.925,0-35.762-5.14-46.603-13.143l36.94-22.967C321.916,407.303,325.262,407.972,328.929,407.972z"/>
							</g>
							<g>
								<path style="fill:#F7EDE5;" d="M329.491,393.972l-3.159-20.344c0.883-0.053,1.767-0.053,2.65-0.053          c11.029,0,21.334,1.74,30.141,4.765l-25.644,15.954C332.222,394.106,330.856,393.999,329.491,393.972z"/>
							</g>
							<g>
								<path style="fill:#F7EDE5;" d="M337.174,395.15l25.135-15.632c7.442,2.944,13.652,6.826,18.122,11.349l-40.045,5.675          C339.476,396.006,338.378,395.524,337.174,395.15z"/>
							</g>
							<g>
								<path style="fill:#F7EDE5;" d="M342.474,403.769l44.623,11.082c-4.979,14.241-25.109,25.269-50.164,27.196l-5.3-34.21          C336.505,407.436,340.547,405.857,342.474,403.769z"/>
							</g>
							<g>
								<path style="fill:#F7EDE5;" d="M388.274,407.972c0,1.445-0.16,2.891-0.482,4.283l-44.114-10.948          c0-0.107,0.027-0.241,0.027-0.348c0-0.723-0.241-1.418-0.669-2.088l39.563-5.595          C386.24,397.719,388.274,402.698,388.274,407.972z"/>
							</g>
						</g>
					</g>
				</g>
			</g>
			<g>
				<g>
					<g>
						<path style="fill:#2C0000;" d="M380.026,219.358c-0.022,0-0.044-0.001-0.066-0.003c-0.372-0.023-0.705-0.24-0.874-0.573        c-5.68-11.13-7.416-23.998-4.885-36.233c2.529-12.234,9.224-23.359,18.85-31.324c0.283-0.234,0.663-0.309,1.013-0.186        c0.346,0.117,0.608,0.407,0.69,0.764l0.47,2.045c2.833,12.268,5.762,24.956,0.877,37.079c-1.832,4.55-4.602,8.62-7.28,12.556        c-1.375,2.019-2.645,4.83-3.872,7.548c-1.265,2.8-2.573,5.695-4.05,7.866C380.701,219.186,380.374,219.358,380.026,219.358z         M393.086,153.972c-8.556,7.567-14.502,17.803-16.818,29.004c-2.305,11.145-0.929,22.838,3.865,33.139        c1.006-1.781,1.96-3.894,2.891-5.953c1.266-2.8,2.573-5.696,4.051-7.867c2.616-3.843,5.32-7.817,7.068-12.157        c4.637-11.507,1.909-23.313-0.976-35.814L393.086,153.972z"/>
					</g>
					<g>
						<path style="fill:#2C0000;" d="M61.964,227.227c-0.131,0-0.261-0.023-0.388-0.074c-0.414-0.162-0.68-0.568-0.668-1.012        c0.117-4.133-0.925-8.308-1.933-12.345c-0.37-1.48-0.74-2.962-1.058-4.447c-1.97-9.186-1.828-18.27,0.408-26.267        c2.518-8.997,7.717-16.723,14.642-21.76c0.26-0.19,0.591-0.247,0.9-0.165c0.309,0.085,0.564,0.305,0.69,0.599        c8.984,20.801,4.241,46.968-11.804,65.115C62.551,227.102,62.261,227.227,61.964,227.227z M73.14,163.842        c-6.008,4.759-10.523,11.742-12.78,19.809c-2.146,7.669-2.276,16.402-0.378,25.256c0.313,1.463,0.678,2.92,1.042,4.378        c0.819,3.281,1.661,6.65,1.923,10.09C76.725,206.328,80.774,182.902,73.14,163.842z"/>
					</g>
					<g>
						<path style="fill:#2C0000;" d="M208.199,119.306c-0.118,0-0.236-0.019-0.351-0.061c-12.579-4.429-22.593-10.612-29.762-18.377        c-8.7-9.423-13.111-21.264-12.102-32.486c0.026-0.283,0.164-0.544,0.385-0.723c0.22-0.183,0.498-0.268,0.786-0.231        c13.794,1.575,25.518,8.366,32.167,18.631c4.675,7.219,6.865,17.625,8.796,26.805c0.377,1.788,0.741,3.519,1.109,5.153        c0.085,0.375-0.041,0.766-0.328,1.021C208.705,119.214,208.453,119.306,208.199,119.306z M168.008,69.662        c-0.584,10.306,3.617,21.095,11.629,29.774c6.591,7.14,15.708,12.909,27.118,17.168c-0.232-1.072-0.465-2.176-0.702-3.305        c-1.894-9-4.041-19.201-8.503-26.093C191.422,77.743,180.697,71.39,168.008,69.662z"/>
					</g>
					<g>
						<path style="fill:#2C0000;" d="M431.082,301.48c-0.279,0-0.547-0.11-0.746-0.308c-0.216-0.216-0.327-0.515-0.307-0.819        c0.705-10.373,4.719-20.517,11.303-28.566c6.583-8.047,15.731-13.993,25.759-16.741c0.271-0.072,0.559-0.038,0.804,0.103        c0.243,0.139,0.421,0.37,0.495,0.641c2.105,7.817,0.011,16.968-5.6,24.479c-5.518,7.387-13.424,12.48-19.697,16.091        l-0.932,0.54c-3.138,1.827-7.435,4.329-11.007,4.577C431.131,301.478,431.107,301.48,431.082,301.48z M466.603,257.382        c-9.198,2.75-17.558,8.311-23.638,15.741c-6.03,7.373-9.812,16.583-10.723,26.064c2.873-0.628,6.279-2.612,8.856-4.111        l0.942-0.547c6.096-3.509,13.772-8.446,19.059-15.525C466.074,272.343,468.092,264.343,466.603,257.382z"/>
					</g>
				</g>
				<g>
					<g>
						<circle style="fill:#FFC161;" cx="336.503" cy="225.692" r="8.625"/>
					</g>
					<g>
						<path style="fill:#FFC161;" d="M450.788,162.44c0,4.764-3.862,8.625-8.626,8.625c-4.764,0-8.625-3.862-8.625-8.625        c0-4.764,3.862-8.625,8.625-8.625C446.926,153.814,450.788,157.676,450.788,162.44z"/>
					</g>
					<g>
						<path style="fill:#FFC161;" d="M34.658,256.706c-0.456-4.742,3.018-8.955,7.76-9.411c4.742-0.456,8.955,3.018,9.411,7.76        c0.456,4.742-3.018,8.955-7.76,9.411C39.327,264.922,35.114,261.448,34.658,256.706z"/>
					</g>
					<g>
						<circle style="fill:#FFC161;" cx="117.996" cy="138.001" r="8.625"/>
					</g>
					<g>
						<path style="fill:#FFC161;" d="M251.688,58.697c0,4.764-3.862,8.625-8.626,8.625c-4.764,0-8.625-3.862-8.625-8.625        s3.862-8.625,8.625-8.625C247.826,50.071,251.688,53.933,251.688,58.697z"/>
					</g>
				</g>
			</g>
		</g>
	</g>
</g>
<g>
</g>
<g>
</g>
<g>
</g>
<g>
</g>
<g>
</g>
<g>
</g>
<g>
</g>
<g>
</g>
<g>
</g>
<g>
</g>
<g>
</g>
<g>
</g>
<g>
</g>
<g>
</g>
<g>
</g>
</svg>
