<svg id="Capa_1" enable-background="new 0 0 497.004 497.004" height="512" viewBox="0 0 497.004 497.004" width="512" xmlns="http://www.w3.org/2000/svg"><g><path d="m415.246 234.459c.515 132.11-184.317 138.616-191.381 7.612-.152-55.319 46.539-97.398 101.068-95.748-56.694-44.133-133.263-54.999-200.652-27.089-49.944 20.688-124.281 80.607-124.281 186.037 0 70.286 57.182 127.467 127.467 127.467h224.933c70.285 0 127.466-57.181 127.466-127.467 0-3.979-1.58-7.794-4.394-10.607z"/><path d="m253.866 242.071c3.295 86.569 127.398 86.518 130.667-.001 0-16.12 5.68-33.612 16.88-51.989 2.554-4.19 5.113-7.946 7.428-11.133l-26.519-26.519c-3.186 2.314-6.943 4.875-11.132 7.428-18.378 11.201-35.87 16.88-51.99 16.88-36.025.001-65.334 29.309-65.334 65.334z"/><path d="m479.866 96.404c-8.284 0-15-6.716-15-15 0-9.447-7.686-17.133-17.133-17.133-12.614-.302-21.285 14.184-15.141 25.156 3.1 5.824 2.03 12.989-2.635 17.654l-25.277 25.279 24.23 24.231 25.278-25.278c4.665-4.666 11.831-5.734 17.655-2.634 10.972 6.14 25.458-2.525 25.156-15.141.001-9.448-7.686-17.134-17.133-17.134z"/></g></svg>