<svg id="Capa_1" enable-background="new 0 0 512 512" height="512" viewBox="0 0 512 512" width="512" xmlns="http://www.w3.org/2000/svg"><g><g><g><g id="XMLID_86_"><circle cx="256" cy="256" fill="#5e585e" r="256"/></g></g></g><path d="m512 256c0-17.205-1.71-34.01-4.946-50.264l-100.395-100.395-12.085 6.322-41.935-41.935-50.264 1.711-14.203-14.203-230.957 230.921 17.508 17.508-5.186 47.001 33.304 33.304 2.5 20.689 100.578 100.43c16.198 3.212 32.94 4.911 50.081 4.911 141.385 0 256-114.615 256-256z" fill="#3f383f"/><g><path d="m217.986 65.428c-11.955-9.549-28.606-12.47-43.734-6.185-15.023 6.242-24.667 19.954-26.435 35.039-14.617-4.124-30.973-.443-42.476 11.06-11.584 11.584-15.239 28.089-10.976 42.784-15.206 1.702-29.045 11.41-35.298 26.552-6.209 15.036-3.332 31.552 6.084 43.468-13.252 7.42-22.215 21.587-22.215 37.855 0 16.382 9.086 30.638 22.491 38.014-9.549 11.955-12.47 28.606-6.185 43.734 6.242 15.023 19.954 24.667 35.039 26.434-4.123 14.617-.443 30.973 11.06 42.476 11.583 11.584 28.089 15.239 42.784 10.976 1.702 15.206 11.41 29.045 26.551 35.298 15.036 6.209 31.552 3.332 43.468-6.084 7.42 13.252 21.588 22.215 37.855 22.215l82.205-207.775-82.204-218.353c-16.382 0-30.637 9.086-38.014 22.492z" fill="#ffc217"/></g><path d="m469.064 256c0-16.382-9.086-30.637-22.491-38.014 9.549-11.955 12.47-28.606 6.185-43.734-6.242-15.023-19.954-24.667-35.039-26.435 4.124-14.617.443-30.973-11.06-42.476-11.583-11.584-28.089-15.239-42.784-10.976-1.702-15.206-11.41-29.045-26.552-35.298-15.036-6.209-31.552-3.332-43.468 6.084-7.42-13.252-21.588-22.215-37.855-22.215v426.127c16.382 0 30.638-9.086 38.014-22.491 11.955 9.549 28.606 12.47 43.734 6.185 15.023-6.242 24.667-19.954 26.435-35.039 14.617 4.124 30.973.444 42.476-11.059 11.583-11.584 15.239-28.089 10.976-42.784 15.206-1.702 29.045-11.41 35.298-26.552 6.209-15.036 3.332-31.552-6.084-43.468 13.252-7.42 22.215-21.587 22.215-37.855z" fill="#f29c11"/><g><path d="m241.399 395.686c-2.702-4.043-6.813-6.791-11.575-7.734-1.187-.236-2.38-.352-3.563-.352-3.565 0-7.052 1.054-10.081 3.084-4.897 3.281-11.057 3.9-16.483 1.66-5.479-2.262-9.419-7.1-10.54-12.945-.923-4.806-3.671-8.947-7.735-11.659-4.066-2.711-8.948-3.659-13.737-2.667-5.824 1.209-11.799-.575-15.992-4.767-4.151-4.151-5.941-10.078-4.789-15.862.948-4.77-.018-9.62-2.72-13.653-2.701-4.033-6.815-6.773-11.579-7.713-5.78-1.141-10.575-5.06-12.828-10.48-2.274-5.474-1.639-11.681 1.699-16.603 2.747-4.051 3.734-8.921 2.778-13.713-.955-4.791-3.734-8.911-7.828-11.602-4.97-3.263-7.937-8.751-7.937-14.679 0-5.87 2.925-11.328 7.825-14.6 4.044-2.702 6.791-6.813 7.734-11.575.945-4.762-.027-9.608-2.732-13.645-3.28-4.895-3.9-11.058-1.66-16.482 2.263-5.479 7.1-9.419 12.945-10.54 4.805-.923 8.947-3.671 11.658-7.735 2.712-4.065 3.659-8.943 2.667-13.736-1.207-5.822.575-11.8 4.767-15.992 4.151-4.15 10.079-5.944 15.862-4.789 4.771.945 9.62-.018 13.653-2.719 4.034-2.701 6.773-6.815 7.713-11.579 1.141-5.78 5.06-10.575 10.48-12.828 5.475-2.274 11.68-1.639 16.596 1.692 3.993 2.711 8.99 3.724 13.715 2.785 4.724-.94 8.954-3.793 11.608-7.829 3.263-4.97 8.751-7.937 14.679-7.937l23.475-11.055-23.474-18.171c-12.298 0-23.902 4.629-32.711 12.752-11.254-4.121-23.743-3.943-35.099.775-11.27 4.681-20.179 13.341-25.22 24.14-11.903.538-23.311 5.468-31.941 14.097-8.695 8.695-13.627 20.173-14.113 32.146-10.871 5.043-19.577 14.001-24.271 25.366-4.658 11.279-4.834 23.704-.763 34.904-8.037 8.797-12.618 20.348-12.618 32.553 0 12.298 4.629 23.901 12.752 32.711-4.121 11.254-3.943 23.744.775 35.099 4.681 11.27 13.341 20.179 24.14 25.22.538 11.904 5.466 23.311 14.097 31.94 8.695 8.696 20.172 13.628 32.146 14.114 5.042 10.871 14.001 19.577 25.366 24.27 11.282 4.659 23.706 4.836 34.904.763 8.797 8.037 20.348 12.618 32.553 12.618l16.417-11.446-16.414-17.777c-5.87 0-11.328-2.925-14.601-7.825zm-7.544-298.252c-.008-.005-.017-.011-.025-.017.008.006.017.012.025.017zm-74.517 30.611c-.001.007-.002.014-.004.022.002-.008.003-.015.004-.022zm-31.293 224.617c.007.001.014.002.022.004-.007-.002-.014-.003-.022-.004z" fill="#ed8835"/><path d="m233.32 199.636c-19.07-23.18-41.736-26.049-50.298-17.233-8.276 8.521-5.252 29.896 16.389 47.919-28.081-2.149-45.142 11.078-45.142 22.957s17.061 25.106 45.142 22.957c-21.641 18.022-24.665 39.397-16.389 47.919 8.562 8.816 31.227 5.947 50.298-17.233-3.342 29.83 10.391 48.088 22.68 48.088l37.028-96.356-37.028-107.106c-12.289 0-26.022 18.258-22.68 48.088z" fill="#ed8835"/><path d="m278.68 306.921c19.071 23.18 41.736 26.049 50.298 17.233 8.276-8.521 5.252-29.896-16.389-47.919 28.081 2.149 45.142-11.078 45.142-22.957s-17.061-25.106-45.142-22.957c21.641-18.022 24.665-39.397 16.389-47.919-8.562-8.816-31.227-5.947-50.298 17.233 3.342-29.83-10.391-48.088-22.68-48.088v203.461c12.289.001 26.022-18.257 22.68-48.087z" fill="#c66620"/></g><path d="m432.734 256c0-12.298-4.629-23.902-12.752-32.711 4.121-11.254 3.944-23.744-.775-35.099-4.681-11.27-13.341-20.179-24.14-25.22-.538-11.904-5.467-23.311-14.097-31.94-8.696-8.696-20.172-13.629-32.146-14.113-5.043-10.871-14-19.577-25.366-24.27-11.28-4.658-23.704-4.835-34.904-.763-8.797-8.037-20.348-12.618-32.553-12.618v29.223c5.87 0 11.328 2.925 14.601 7.825 2.702 4.044 6.813 6.791 11.575 7.734 4.765.947 9.609-.029 13.645-2.732 4.897-3.281 11.058-3.901 16.483-1.66 5.479 2.263 9.418 7.1 10.54 12.945.923 4.806 3.67 8.946 7.734 11.659 4.065 2.711 8.943 3.655 13.738 2.666 5.823-1.209 11.8.575 15.992 4.767 4.151 4.151 5.941 10.079 4.789 15.862-.948 4.77.019 9.619 2.72 13.653 2.701 4.033 6.815 6.773 11.579 7.713 5.78 1.141 10.575 5.06 12.828 10.48 2.274 5.474 1.639 11.681-1.699 16.603-2.747 4.051-3.733 8.921-2.777 13.713.955 4.791 3.734 8.911 7.828 11.603 4.97 3.263 7.937 8.751 7.937 14.679 0 5.87-2.924 11.328-7.825 14.6-4.044 2.702-6.791 6.813-7.734 11.575-.945 4.762.027 9.608 2.733 13.646 3.279 4.894 3.899 11.056 1.659 16.482-2.263 5.479-7.1 9.418-12.945 10.54-4.806.923-8.946 3.67-11.658 7.734-2.711 4.064-3.659 8.941-2.667 13.737 1.207 5.822-.575 11.8-4.767 15.992-4.151 4.15-10.076 5.944-15.863 4.789-4.769-.943-9.619.018-13.653 2.72-4.034 2.701-6.773 6.815-7.713 11.579-1.141 5.78-5.06 10.575-10.48 12.828-5.476 2.275-11.681 1.637-16.603-1.698-4.051-2.747-8.92-3.735-13.713-2.778-4.791.955-8.911 3.734-11.601 7.828-3.265 4.97-8.753 7.937-14.68 7.937v29.223c12.297 0 23.9-4.629 32.711-12.752 11.253 4.121 23.744 3.943 35.099-.775 11.27-4.681 20.179-13.341 25.22-24.14 11.903-.538 23.311-5.467 31.94-14.097 8.696-8.695 13.628-20.173 14.114-32.146 10.871-5.043 19.577-14.001 24.27-25.366 4.658-11.28 4.833-23.705.764-34.904 8.033-8.797 12.612-20.348 12.612-32.553zm-48.802-96.666c.008.002.014.003.022.004-.007-.001-.014-.002-.022-.004zm-31.27 224.621c.001-.008.002-.014.004-.022-.002.007-.003.014-.004.022z" fill="#c66620"/></g></svg>