<?xml version="1.0" encoding="iso-8859-1"?>
<!-- Generator: Adobe Illustrator 19.0.0, SVG Export Plug-In . SVG Version: 6.00 Build 0)  -->
<svg version="1.1" id="Capa_1" xmlns="http://www.w3.org/2000/svg" xmlns:xlink="http://www.w3.org/1999/xlink" x="0px" y="0px"
	 viewBox="0 0 511.999 511.999" style="enable-background:new 0 0 511.999 511.999;" xml:space="preserve">
<path style="fill:#4E901E;" d="M298.597,238.879c-18.803-18.75-31.892-43.523-30.018-69.953
	C276.042,63.742,368.975,66.937,368.975,66.937c26.445,0,51.425,10.241,70.338,28.836c18.935,18.617,29.596,43.46,30.018,69.954
	c0.883,55.347-43.428,101.094-98.775,101.977C370.017,267.711,326.599,266.801,298.597,238.879z"/>
<path style="fill:#47821C;" d="M351.887,196.531c-18.803-18.75-31.892-43.523-30.018-69.953c1.626-22.91,7.308-40.675,15.199-54.455
	c-27.654,8.853-63.941,32.705-68.489,96.801c-1.875,26.431,11.215,51.203,30.018,69.953c28.001,27.922,71.42,28.832,71.959,28.824
	c35.427-0.565,66.331-19.511,83.757-47.591c-9.586,3.238-19.821,5.074-30.467,5.244
	C423.307,225.364,379.888,224.454,351.887,196.531z"/>
<path style="fill:#FFE477;" d="M370.307,252.031c-46.706,0.745-85.311-36.649-86.056-83.356
	c-0.745-46.706,36.649-85.311,83.355-86.056c46.706-0.745,85.311,36.649,86.056,83.355
	C454.406,212.681,417.012,251.286,370.307,252.031z"/>
<g>
	<path style="fill:#FFDA44;" d="M368.957,167.325l31.163-78.763c-10.056-3.995-21.038-6.124-32.514-5.941
		c-11.476,0.183-22.384,2.662-32.308,6.975L368.957,167.325z"/>
	<path style="fill:#FFDA44;" d="M370.307,252.031c11.476-0.183,22.384-2.662,32.308-6.975l-33.658-77.73l-31.163,78.763
		C347.85,250.083,358.83,252.214,370.307,252.031z"/>
	<path style="fill:#FFDA44;" d="M368.957,167.325l-78.763-31.163c-3.995,10.056-6.124,21.038-5.941,32.514
		c0.183,11.476,2.662,22.384,6.975,32.308L368.957,167.325z"/>
	<path style="fill:#FFDA44;" d="M453.661,165.974c-0.183-11.476-2.662-22.384-6.975-32.308l-77.73,33.658l78.763,31.163
		C451.715,188.432,453.844,177.45,453.661,165.974z"/>
</g>
<path style="fill:#D1E7F8;" d="M369.418,163.442c-4.504-5.056-10.952-7.947-17.721-7.947H66.387c-6.77,0-13.219,2.891-17.721,7.947
	c-4.502,5.056-6.633,11.794-5.851,18.52l35.861,309.041c1.388,11.967,11.525,20.996,23.573,20.996h213.587
	c12.049,0,22.184-9.029,23.574-20.996l35.862-309.041C376.05,175.236,373.921,168.499,369.418,163.442z"/>
<path style="fill:#B9D8F4;" d="M177.127,491.003l-35.861-309.041c-0.781-6.726,1.349-13.464,5.851-18.52
	c4.504-5.056,10.952-7.947,17.721-7.947H66.387c-6.77,0-13.219,2.891-17.721,7.947c-4.504,5.056-6.633,11.794-5.851,18.52
	l35.861,309.041c1.388,11.967,11.525,20.996,23.573,20.996H200.7C188.652,511.999,178.516,502.971,177.127,491.003z"/>
<path style="fill:#FFFFFF;" d="M309.94,437.466c-2.624-2.946-6.381-4.631-10.326-4.631H118.468c-3.944,0-7.702,1.684-10.326,4.631
	c-2.624,2.946-3.864,6.872-3.41,10.791l2.34,20.161c0.81,6.974,6.716,12.234,13.735,12.234h176.466
	c7.02,0,12.926-5.26,13.735-12.234l2.34-20.161C313.804,444.338,312.563,440.411,309.94,437.466z"/>
<path style="fill:#D1E7F8;" d="M118.468,432.835c-3.944,0-7.702,1.684-10.326,4.631c-2.624,2.946-3.864,6.872-3.41,10.792
	l2.34,20.161c0.81,6.974,6.716,12.234,13.735,12.234h55.117l-5.548-47.817h-51.908V432.835z"/>
<path style="fill:#3E3D42;" d="M144.68,318.014c-8.862-0.356-15.822-7.898-15.466-16.76l11.481-285.775
	c0.356-8.862,7.898-15.822,16.76-15.466l0,0c8.862,0.356,15.822,7.898,15.466,16.76L161.44,302.549
	C160.408,320.438,144.68,318.014,144.68,318.014z"/>
<path style="fill:#1D1D1F;" d="M135.07,155.494l-5.856,145.76c-0.356,8.862,6.604,16.404,15.466,16.76
	c0,0,15.728,2.424,16.76-15.466l5.908-147.055L135.07,155.494L135.07,155.494z"/>
<path style="fill:#57565C;" d="M153.466,318.014c0,0-14.901,3.817-19.663-11.553L61.893,29.642
	c-2.23-8.585,2.969-17.433,11.553-19.663l0,0c8.585-2.23,17.433,2.969,19.663,11.553l71.911,276.819
	C167.249,306.936,162.051,315.784,153.466,318.014z"/>
<path style="fill:#2D2D30;" d="M133.803,306.461c4.761,15.37,19.663,11.553,19.663,11.553c8.585-2.23,13.783-11.078,11.553-19.663
	l-37.111-142.857H94.586L133.803,306.461z"/>
<path style="fill:#FFFFFF;" d="M339.489,213.431c-2.741-3.077-6.665-4.837-10.785-4.837H89.38c-4.121,0-8.045,1.76-10.785,4.837
	c-2.741,3.077-4.036,7.178-3.562,11.271l19.032,164.006c0.845,7.284,7.014,12.779,14.348,12.779h201.26
	c7.333,0,13.502-5.495,14.348-12.779l19.032-164.006C343.526,220.609,342.229,216.509,339.489,213.431z"/>
<path style="fill:#DDFFFB;" d="M89.38,208.594c-4.121,0-8.045,1.76-10.785,4.837s-4.036,7.178-3.562,11.271l19.032,164.006
	c0.845,7.284,7.014,12.779,14.348,12.779h58.328l-22.384-192.893H89.38z"/>
<path style="fill:#FFDE55;" d="M159.843,303.485c-7.991,10.745-13.86,22.791-17.442,35.804c-0.051,0.169-0.143,0.484-0.266,0.934
	c-1.279,4.662-5.257,21.499-2.766,42.396c0.249,2.088,1.326,3.987,2.989,5.274c1.663,1.286,3.773,1.848,5.857,1.563l99.589-13.653
	c3.112-0.427,5.664-2.67,6.493-5.691c0.011-0.042,0.022-0.084,0.033-0.124c0.792-3.085-0.362-6.341-2.917-8.24l-80.609-59.878
	C167.332,299.291,162.425,300.014,159.843,303.485z"/>
<path style="fill:#4E901E;" d="M157.25,344.369c0.123-0.45,0.216-0.765,0.266-0.934c3.583-13.014,9.451-25.06,17.442-35.804
	c0.445-0.598,0.962-1.109,1.526-1.54l-5.68-4.219c-3.473-2.58-8.379-1.857-10.961,1.614c-7.991,10.745-13.86,22.791-17.442,35.804
	c-0.051,0.169-0.143,0.484-0.266,0.934c-1.279,4.662-5.257,21.499-2.766,42.396c0.249,2.088,1.326,3.987,2.989,5.274
	c1.663,1.286,3.773,1.848,5.857,1.563l6.703-0.918c-0.209-0.568-0.36-1.161-0.434-1.772
	C151.993,365.867,155.971,349.031,157.25,344.369z"/>
<path style="fill:#FFE477;" d="M307.086,315.351c-4.256-12.697-10.794-24.393-19.43-34.767c-0.111-0.139-0.316-0.394-0.614-0.752
	c-3.097-3.711-14.646-16.593-33.223-26.482c-1.856-0.988-4.03-1.189-6.036-0.558c-2.006,0.631-3.673,2.042-4.628,3.915
	l-45.667,89.548c-1.427,2.798-1.044,6.174,0.963,8.58c0.027,0.032,0.055,0.066,0.084,0.098c2.079,2.412,5.412,3.325,8.43,2.311
	l95.186-31.974C306.252,323.893,308.461,319.452,307.086,315.351z"/>
<path style="fill:#5EAC24;" d="M275.007,289.872c0.299,0.358,0.505,0.614,0.614,0.752c8.636,10.374,15.174,22.07,19.43,34.767
	c0.237,0.706,0.361,1.423,0.393,2.132l6.707-2.253c4.101-1.377,6.31-5.818,4.935-9.919c-4.256-12.697-10.794-24.393-19.43-34.767
	c-0.111-0.139-0.316-0.394-0.614-0.752c-3.097-3.711-14.646-16.593-33.223-26.482c-1.856-0.988-4.03-1.189-6.036-0.558
	c-2.006,0.631-3.673,2.042-4.628,3.915l-3.074,6.027c0.586,0.154,1.159,0.367,1.703,0.656
	C260.36,273.279,271.91,286.16,275.007,289.872z"/>
<path style="fill:#DDFFFB;" d="M231.111,284.955l-39.649-39.649c-7.721-7.721-7.721-20.356,0-28.076l39.649-39.649
	c7.721-7.721,20.356-7.721,28.076,0l39.649,39.649c7.721,7.721,7.721,20.356,0,28.076l-39.649,39.649
	C251.466,292.675,238.831,292.676,231.111,284.955z"/>
<path style="fill:#E1FD9F;" d="M191.462,217.23c-7.721,7.721-7.721,20.356,0,28.076l39.649,39.649
	c7.721,7.721,20.356,7.721,28.076,0l39.649-39.649c7.721-7.721,7.721-20.356,0-28.076l-8.635-8.635h-90.104L191.462,217.23z"/>
<path style="fill:#FFFFFF;" d="M158.897,286.257l-39.649-39.649c-7.721-7.721-7.721-20.356,0-28.076l39.649-39.649
	c7.721-7.721,20.356-7.721,28.076,0l39.649,39.649c7.721,7.721,7.721,20.356,0,28.076l-39.649,39.649
	C179.251,293.977,166.617,293.977,158.897,286.257z"/>
<path style="fill:#EBFEC0;" d="M119.247,218.532c-7.721,7.721-7.721,20.356,0,28.076l39.649,39.649
	c7.721,7.721,20.356,7.721,28.076,0l39.649-39.649c7.721-7.721,7.721-20.356,0-28.076l-9.937-9.937h-87.5L119.247,218.532z"/>
<g>
</g>
<g>
</g>
<g>
</g>
<g>
</g>
<g>
</g>
<g>
</g>
<g>
</g>
<g>
</g>
<g>
</g>
<g>
</g>
<g>
</g>
<g>
</g>
<g>
</g>
<g>
</g>
<g>
</g>
</svg>
