<svg xmlns="http://www.w3.org/2000/svg" version="1.1" xmlns:xlink="http://www.w3.org/1999/xlink" width="512" height="512" x="0" y="0" viewBox="0 0 512 512" style="enable-background:new 0 0 512 512" xml:space="preserve" class=""><rect width="512" height="512" fill="#dedee7" shape="square"></rect><g transform="matrix(0.7,0,0,0.7,76.80000000000001,76.80000000000001)"><path fill="#353744" d="M152 313.333h48V364h-48zM408 188h32v176h-32z" opacity="1" data-original="#353744" class=""></path><path fill="#55525b" d="M408 188h16v176h-16z" opacity="1" data-original="#55525b" class=""></path><circle cx="176" cy="180" r="160" fill="#55525b" opacity="1" data-original="#55525b" class=""></circle><circle cx="176" cy="180" r="152" fill="#353744" opacity="1" data-original="#353744" class=""></circle><circle cx="176" cy="180" r="116.235" fill="#55525b" opacity="1" data-original="#55525b" class=""></circle><path fill="#f04b37" d="M200 364h-48a8 8 0 0 0-8 8v88c0 17.673 14.327 32 32 32 17.673 0 32-14.327 32-32v-88a8 8 0 0 0-8-8zm-24 112c-8.837 0-16-7.164-16-16s7.163-16 16-16 16 7.164 16 16-7.163 16-16 16z" opacity="1" data-original="#f04b37"></path><path fill="#ff6955" d="M161.333 438.667a6.667 6.667 0 0 1-6.667-6.667v-53.333a6.667 6.667 0 0 1 13.334 0V432a6.667 6.667 0 0 1-6.667 6.667z" opacity="1" data-original="#ff6955"></path><path fill="#f04b37" d="M440 364h-32a8 8 0 0 0-8 8v96c0 13.255 10.745 24 24 24s24-10.745 24-24v-96a8 8 0 0 0-8-8zm-16 112a8 8 0 1 1 0-16 8 8 0 0 1 0 16z" opacity="1" data-original="#f04b37"></path><path fill="#ff6955" d="M417.333 452a6.667 6.667 0 0 0 6.667-6.667v-66.667a6.667 6.667 0 0 0-13.334 0v66.667a6.668 6.668 0 0 0 6.667 6.667z" opacity="1" data-original="#ff6955"></path><path fill="#353744" d="M472 28h-96c-13.255 0-24 10.745-24 24v80c0 30.928 25.072 56 56 56h32c30.928 0 56-25.072 56-56V52c0-13.255-10.745-24-24-24zm-80 104a8 8 0 0 1-16 0V60a8 8 0 0 1 16 0zm40 0a8 8 0 0 1-16 0V60a8 8 0 0 1 16 0zm40 0a8 8 0 0 1-16 0V60a8 8 0 0 1 16 0z" opacity="1" data-original="#353744" class=""></path></g></svg>