<svg id="Layer_1" enable-background="new 0 0 3000 3000" height="512" viewBox="0 0 3000 3000" width="512" xmlns="http://www.w3.org/2000/svg"><path d="m1087.5 71.1 132.9 31 57.5 93.8 180.7 45.3 26.1 88.9-20.1 43.5 56.8 136.7-48.3 145.8 101.9 80.8-.4 52.6 64.2 58.6-35.7 108.3 63.8 48.8-19.2 72.7 36.1 98.3-22.3 37.8 44.1 39.6-46 89.1 18.8 42.4-102.5 30.5-585.7-89.7-155-484.8z" fill="#fbf2e9"/><path d="m1087.3 71.1s547.9 576.6 483.4 1359.3l-391.8 16.5-344-605.8-130-237.9z" fill="#efe4dc"/><path d="m1030.6 106.6s488.6 549.1 402.4 1321.8l-363.8 29.5-298.5-584.8-112.6-229.8z" fill="#e9d9cd"/><path d="m2205.6 2793.1c-330.2 238.9-719 199.7-622.3-182.2 160.9-635.4 22.9-1236.6-125.1-1237.1-10.4 0-20.8 2.9-31.2 9-99.1 57.9-53.1-240.5-53.1-240.5s1074.4-514.7 1239.3 613.7c72.3 494.7-149.8 850.7-407.6 1037.1z" fill="#f8eec9"/><path d="m1422.3 1179.9s370.6-154.3 500.9-41.9-125.9 103.4-224.7 71.9-246.8 11.9-276.2-30z" fill="#fff" opacity=".22"/><path d="m2205.6 2793.1c-330.2 238.9-719 199.7-622.3-182.2 160.9-635.4 22.9-1236.6-125.1-1237.1 20-12.6 135.1-68.2 206 260.2 77.9 360.6 36.9 602.4 4.1 774.6-32.6 171.5-171.1 692.9 537.3 384.5z" fill="#fcdeae"/><g><g><path d="m1476.6 1451.8c-519.2 133.8-1020.4-69.6-1119.5-454.2-47.2-183.3 5.4-374.6 129.5-539.2 21-27.9 44.2-55 69.2-81.2 132.2-138.3 318-250.5 537.1-311.5l89.3 91.1-31.7 83.5-61.8 86.8 91.3 96.2 109.8 64.8-23.4 81.4-26.8 33.5 110 100.2-58.5 117 32.1 124.7 95.2 59.7-17.4 35.5 103.6 75.2-5.9 18.1-28.7 88.3-32.7 79.4 77.2 24.4-12 74 70.7 23.5c-31.5 10.7-63.7 20.3-96.6 28.8z" fill="#ffb67a"/></g><g enable-background="new" opacity=".66"><path d="m1476.6 1451.8c-519.2 133.8-1020.4-69.6-1119.5-454.2-47.2-183.3 5.4-374.6 129.5-539.2 21-27.9 44.2-55 69.2-81.2-53.5 772 467.9 844.6 942.8 756.3l-28.7 88.3-32.7 79.4 77.2 24.4-12 74 70.7 23.5c-31.4 10.6-63.6 20.2-96.5 28.7z" fill="#fea35d"/></g><g><ellipse cx="946.3" cy="354.2" fill="#fca05e" rx="44" ry="21.7" transform="matrix(.968 -.25 .25 .968 -58.447 247.306)"/></g><g><ellipse cx="767.6" cy="1140" fill="#fca05e" rx="44" ry="21.7" transform="matrix(.968 -.25 .25 .968 -260.151 227.552)"/></g><g><ellipse cx="1427.7" cy="1200.9" fill="#fca05e" rx="44" ry="21.7" transform="matrix(.968 -.25 .25 .968 -254.462 394.17)"/></g><g><ellipse cx="885.9" cy="481.2" fill="#fca05e" rx="15.6" ry="11" transform="matrix(.968 -.25 .25 .968 -92.041 236.255)"/></g><g><ellipse cx="796.9" cy="408.8" fill="#fca05e" rx="15.6" ry="11" transform="matrix(.968 -.25 .25 .968 -76.8 211.755)"/></g><g><ellipse cx="762.2" cy="1048.3" fill="#fca05e" rx="15.6" ry="11" transform="matrix(.968 -.25 .25 .968 -237.431 223.326)"/></g><g><ellipse cx="723.3" cy="1241.6" fill="#fca05e" rx="15.6" ry="11" transform="matrix(.968 -.25 .25 .968 -286.89 219.733)"/></g><g><ellipse cx="1392.2" cy="1319.2" fill="#fca05e" rx="15.6" ry="11" transform="matrix(.968 -.25 .25 .968 -285.119 389.061)"/></g><g><path d="m1078.6 327.8 65-91.3 29.5-77.9-85.8-87.5 11.1-10.9 92.9 94.6-33.8 89.2-58.7 82.4 86.1 90.7 114 67.3-25.5 88.7-23.2 29 109 99.2-59.8 119.7 30.6 118.9 98.5 61.8-17.7 35.9 103.1 74.8-66.6 183.7 75.8 24-11.9 74.1 64.4 21.4-4.9 14.8-77.1-25.6 12-73.9-78.6-24.8 68.2-187.9-104.2-75.7 17.3-35.1-91.9-57.6-33.6-130.5 57.1-114.4-111-101.1 30.4-38 21.3-74.1-105.6-62.3-.7-.8z" fill="#f8eec9"/></g></g><g><path d="m2171.9 2560.2c-.3 0-.6 0-1-.1-75.7-7.2-114.7-194.2-142.2-325.8-87.4-419-7.7-935 131.5-958 26.6-4.4 54.8 9.3 82.7 35.5 2.2 2 4.4 4.2 6.6 6.4.8 1.9 1.5 3.6 2.4 5.5 13.9 520.9 25.4 887.7 25.5 1146.5v11.3 4.1c-4.3 5.6-8.5 11-12.7 16-.7.8-1.3 1.5-2 2.4-3.9 4.6-7.9 9-11.9 13.1-.6.7-1.3 1.3-1.9 1.9-.7.7-1.3 1.3-1.9 2-.7.7-1.3 1.3-1.9 1.9-.7.6-1.3 1.3-1.9 1.9-.5.5-1.1 1-1.6 1.5-1.4 1.3-2.9 2.7-4.3 3.9-.6.6-1.2 1.1-1.8 1.7-1.3 1.2-2.6 2.2-3.9 3.3-.6.5-1.2 1-1.8 1.5-.5.3-.9.7-1.3 1.1-1 .8-2.1 1.6-3.1 2.4-.4.3-.9.7-1.2.9-.7.5-1.2.9-1.9 1.4-.6.4-1.1.8-1.7 1.2-2.6 1.8-5.1 3.4-7.6 4.9-.6.3-1.2.7-1.8 1-1.1.6-2.2 1.2-3.3 1.8-.5.2-.8.5-1.3.6-.2.1-.3.2-.5.2-.4.2-.7.4-1 .6-.6.2-1 .5-1.6.7s-1 .5-1.6.7c-1.4.6-2.8 1.1-4.2 1.7-.5.1-.8.3-1.3.4-.6.2-1.2.4-1.8.6s-1.1.4-1.7.5c-.1 0-.1.1-.2.1-.5.1-1 .3-1.6.4-.1 0-.2.1-.3.1-.5.1-1.1.3-1.6.4s-1.1.3-1.7.4-1.3.3-1.9.4c-.5.1-1.1.2-1.6.2-.5.1-1 .1-1.5.3-.3.1-.5 0-.7.1-.4.1-1.1 0-1.1 0h-.1s-1.1.2-1.6.2c-.5.1-.9 0-1.3.1-.3 0-.5.1-.7 0-.4 0-1-.7-1-.7h-.4l-1.5.8h-.2c-.2.2-1.5.1-2 0z" fill="#f3e89e" opacity=".88"/><path d="m2281.5 2497.8c-97.3-8.6-152.5-181.1-191.4-302.5-123.7-386.4-35.4-857.1 142.4-874.4 14-1.4 28.6.2 43.3 4 120.8 32.4 258.8 230.7 311.6 390.7 63.8 193.3 24.7 395.4-49.9 545.7-72.5 146.1-178.4 243.4-256 236.5z" fill="#ff9e00"/><path d="m2171.9 2560.2-1-.1s-114.7-194.2-142.2-325.8c-87.4-419-7.7-935 131.5-958 26.6-4.4 54.8 9.3 82.7 35.5-17.8-7.6-189.3-70.9-218.9 290.5-31.1 380.5 16.4 1147.9 253.2 879.4v4.1c-4.3 5.6-8.5 11-12.7 16-.7.8-1.3 1.5-2 2.4-3.9 4.6-7.9 9-11.9 13.1-.6.7-1.3 1.3-1.9 1.9-.7.7-1.3 1.3-1.9 2-.7.7-1.3 1.3-1.9 1.9-.7.6-1.3 1.3-1.9 1.9-.5.5-1.1 1-1.6 1.5-1.4 1.3-2.9 2.7-4.3 3.9-.6.6-1.2 1.1-1.8 1.7-1.3 1.2-2.6 2.2-3.9 3.3-.6.5-1.2 1-1.8 1.5-.5.3-.9.7-1.3 1.1-1 .8-2.1 1.6-3.1 2.4-.4.3-.9.7-1.2.9-.7.5-1.2.9-1.9 1.4-.6.4-1.1.8-1.7 1.2-2.6 1.8-5.1 3.4-7.6 4.9-.6.3-1.2.7-1.8 1-1.1.6-2.2 1.2-3.3 1.8-.5.2-.8.5-1.3.6-.2.1-.3.2-.5.2-.4.2-.7.4-1 .6-.6.2-1 .5-1.6.7s-1 .5-1.6.7c-1.4.6-2.8 1.1-4.2 1.7-.5.1-.8.3-1.3.4-.6.2-1.2.4-1.8.6s-1.1.4-1.7.5c-.1 0-.1.1-.2.1-.5.1-1 .3-1.6.4-.1 0-.2.1-.3.1-.5.1-1.1.3-1.6.4s-1.1.3-1.7.4-1.3.3-1.9.4c-.5.1-1.1.2-1.6.2-.5.1-1 .1-1.5.3-.3.1-.5 0-.7.1-.4.1-1.1-.1-1.1-.1h-.1s-1.1.3-1.6.3c-.5.1-.9 0-1.3.1-.3 0-.5.1-.7 0-.4 0-1-.8-1-.8h-.4s-1 .8-1.5.8h-.2z" fill="#ffdb83" opacity=".44"/><path d="m2281.5 2497.8c-97.3-8.6-152.5-181.1-191.4-302.5-123.7-386.4-35.4-857.1 142.4-874.4 14-1.4 28.6.2 43.3 4-64.2 89.7-146.1 280.5-89.1 637.4 66.1 414.1 259.9 353.5 350.8 299-72.5 146.1-178.4 243.4-256 236.5z" fill="#ff7e00" opacity=".55"/><g fill="#fffcf4"><path d="m2428.7 1502.6s191.4 236.2 125 389.3c-66.4 153.2-288.3-510.2-125-389.3z" opacity=".22"/><path d="m2120.9 2166.3c17.9 47.5 77.4 197.8 137.5 249.1 17 14.5 46.5-1.1 32.6-17.3-26.9-31.4-66.5-89.8-84.2-175.8-16.4-80.2-45.1-90.5-65.9-85.4-16.2 4-24.7 17-20 29.4z" opacity=".22"/></g></g><g fill="#fff"><path d="m1826.8 1538.2s39.3-383.4 334.2-373.6 68.8 172-9.8 127.8-206.4 54.1-240.8 216.3-127.8 221.2-83.6 29.5z" opacity=".22"/><path d="m1817.8 2166.5s-154.7 566.2 207.2 569.9c88.7.9 174.2-33.2 239.2-93.5 50.7-47.1 97.1-103.6 43.3-115.3-95.5-20.8-286.4 178.5-286.4 24.9s-128.6-643.3-203.3-386z" opacity=".22"/></g></svg>