<svg id="Capa_1" enable-background="new 0 0 512 512" height="512" viewBox="0 0 512 512" width="512" xmlns="http://www.w3.org/2000/svg"><g><path d="m346.563 47.405-42.375 56.5c-4.699 6.266-3.811 15.087 2.042 20.29l23.115 20.547-39.857 49.055c-5.245 6.455-4.263 15.939 2.192 21.183 6.454 5.244 15.939 4.264 21.183-2.191l48.941-60.235c5.081-6.253 4.339-15.398-1.683-20.751l-23.526-20.912 30.365-40.487c48.592 60.648 84.803 149.761 84.803 223.243.002 125.082-76.74 218.353-195.763 218.353-120.045 0-195.765-90.864-195.765-218.353 0-126.953 103.125-293.647 195.765-293.647 30.279 0 61.843 18.349 90.563 47.405z"/></g></svg>