<svg fill="none" height="513" viewBox="0 0 513 513" width="513" xmlns="http://www.w3.org/2000/svg" xmlns:xlink="http://www.w3.org/1999/xlink"><clipPath id="clip0_15_2302"><path d="m.125.835h512v512h-512z"/></clipPath><g clip-path="url(#clip0_15_2302)" fill="#000"><path d="m512.124 256.835c0-16.54-14.27-46.76-45.61-74-17.888-15.387-38.275-27.603-60.28-36.12-.732-.274-1.539-.266-2.265.022-.727.289-1.32.836-1.665 1.538-.15.29-.3.57-.47.86l-9.59 15.9c-16.172 27.926-24.683 59.628-24.67 91.899.012 32.271 8.547 63.967 24.74 91.881l.23.39 8.74 16c.464.849 1.22 1.502 2.129 1.837.908.335 1.907.328 2.811-.017 73.53-28.77 105.9-84.7 105.9-110.19zm-93.92-.14c-3.313.433-6.68-.182-9.626-1.759-2.946-1.578-5.325-4.038-6.802-7.036-1.476-2.998-1.977-6.383-1.432-9.68s2.109-6.341 4.472-8.704 5.407-3.927 8.704-4.472 6.682-.044 9.68 1.433 5.458 3.855 7.035 6.801c1.578 2.947 2.193 6.313 1.759 9.627-.457 3.497-2.057 6.745-4.551 9.238-2.494 2.494-5.742 4.094-9.239 4.552z"/><path d="m335.574 256.835c-.014-37.937 10.02-75.2 29.08-108l.12-.21 4.62-7.67c.334-.547.532-1.165.577-1.804s-.064-1.279-.317-1.867c-.254-.588-.646-1.107-1.141-1.512-.496-.405-1.082-.686-1.709-.817-12.945-2.708-26.064-4.509-39.26-5.39-1.556-.101-3.048-.657-4.29-1.6-19.28-14.66-57.5-40.3004-96.46-46.8904-2.662-.4411-5.393-.2017-7.938.696s-4.821 2.4245-6.618 4.4384c-1.796 2.0139-3.054 4.4494-3.656 7.08s-.529 5.3708.212 7.966l10.62 37.17c.276.963.181 1.995-.267 2.891s-1.216 1.592-2.153 1.949c-36.85 13.69-68.59 38.75-91.74 57.85-1.417 1.159-3.188 1.798-5.019 1.809s-3.61-.607-5.041-1.749c-3.146-2.5-6.376-4.964-9.69-7.39-39.6397-28.95-86.2097-32.76-88.1697-32.9-2.4885-.188-4.9865.208-7.2944 1.158-2.30782.95-4.3615 2.426-5.99688 4.311s-2.80712 4.127-3.421571 6.546c-.61445055 2.419-.6545736 4.948-.117162 7.385.42 1.93 9.190003 40.69 31.700013 71.61 1.0133 1.385 1.5595 3.058 1.5595 4.775 0 1.716-.5462 3.389-1.5595 4.775-22.51001 30.91-31.280013 69.68-31.700013 71.61-.5374116 2.437-.49728855 4.966.117162 7.384.614451 2.419 1.786191 4.661 3.421571 6.546s3.68906 3.361 5.99688 4.311c2.3079.95 4.8059 1.347 7.2944 1.159 2-.14 48.53-4 88.1197-32.88 3.234-2.374 6.39-4.78 9.47-7.22 1.432-1.142 3.212-1.757 5.043-1.745 1.831.013 3.602.654 5.017 1.815 23.25 19.19 55.05 44.28 92 58 .934.356 1.701 1.05 2.149 1.944s.545 1.924.271 2.886l-10.66 37.18c-.741 2.594-.814 5.335-.212 7.965.602 2.631 1.86 5.066 3.656 7.08 1.797 2.014 4.073 3.541 6.618 4.439 2.545.897 5.276 1.137 7.938.696 17.16-2.9 51.88-12.86 96.05-46.83 1.262-.963 2.777-1.537 4.36-1.65 13.18-.864 26.284-2.635 39.22-5.3.611-.129 1.183-.398 1.671-.787.488-.388.878-.886 1.14-1.452.261-.567.386-1.187.365-1.81-.021-.624-.187-1.234-.486-1.781l-4.51-8.29c-19.004-32.776-29.002-69.994-28.98-107.88z"/></g></svg>