<svg height="512" viewBox="0 0 64 64" width="512" xmlns="http://www.w3.org/2000/svg"><g id="_18-fruit_jam" data-name="18-fruit jam"><path d="m54.24 19-3.32 7h-6.88l3.32-7z" fill="#ffcaa4"/><path d="m59.2 1.29a3.047 3.047 0 0 1 1.51 4.07l-4.57 9.64h-6.88l5.8-12.23a3.136 3.136 0 0 1 4.14-1.48z" fill="#ffcaa4"/><path d="m59 15a2.006 2.006 0 0 1 2 2 2.015 2.015 0 0 1 -2 2h-32a2.006 2.006 0 0 1 -2-2 2.015 2.015 0 0 1 2-2z" fill="#d8d1c5"/><path d="m63 34.1v13.9c-.53 10.46-9.3 15-20 15s-19.42-4.54-19.95-15h-.05v-13.9a20.033 20.033 0 0 1 2.44-9.58l3.56-5.52h18.36l-3.32 7h-16.14c-1.24 2.47-1.9 7.01-1.9 9.7v11.69h.04c.45 8.79 7.86 12.61 16.96 12.61s16.55-3.82 17-12.61v-11.69c0-2.69-.66-7.23-1.9-9.7h-7.18l3.32-7h2.76l3.56 5.52a20.033 20.033 0 0 1 2.44 9.58z" fill="#eeeae3"/><path d="m60 35.7v11.69c-.45 8.79-7.9 12.61-17 12.61s-16.51-3.82-16.96-12.61h-.04v-11.69c0-2.69.66-7.23 1.9-9.7h30.2c1.24 2.47 1.9 7.01 1.9 9.7z" fill="#ff634b"/><path d="m61.5 49a1.408 1.408 0 0 1 -1.482-1h-.081c-.764 8.347-8.055 12-16.937 12s-16.135-3.653-16.9-12h-.121a1.408 1.408 0 0 1 -1.479 1 1.5 1.5 0 0 1 -1.431-.813c.631 10.323 9.297 14.813 19.931 14.813 10.7 0 19.47-4.54 20-15h-.018a1.408 1.408 0 0 1 -1.482 1z" fill="#d0c6b8"/><circle cx="33" cy="45" fill="#a30d0d" r="2"/><circle cx="39" cy="50" fill="#a30d0d" r="2"/><path d="m60.41 16.41a1.955 1.955 0 0 1 -1.41.59h-32a2 2 0 0 1 -1.721-1 1.963 1.963 0 0 0 -.279 1 2.006 2.006 0 0 0 2 2h32a1.984 1.984 0 0 0 1.721-3 1.938 1.938 0 0 1 -.311.41z" fill="#b4aaa1"/><path d="m31.04 47.39h-.04v-11.69c0-2.69.66-7.23 1.9-9.7h-5c-1.24 2.47-1.9 7.01-1.9 9.7v11.69h.04c.45 8.79 7.86 12.61 16.96 12.61.852 0 1.682-.045 2.5-.113-7.919-.657-14.052-4.53-14.46-12.497z" fill="#f93623"/><path d="m58.1 26h-5c1.24 2.47 1.9 7.01 1.9 9.7v11.69c-.408 7.967-6.573 11.84-14.5 12.5.817.068 1.647.113 2.5.113 9.1 0 16.55-3.82 17-12.61v-11.693c0-2.69-.66-7.23-1.9-9.7z" fill="#ff9079"/><path d="m47.36 19-3.32 7h2.96l1.5-3.743a2 2 0 0 1 1.854-1.257h2.937l.949-2z" fill="#eaaf79"/><path d="m54.31 10.162 4.2-9.1a3.151 3.151 0 0 0 -.63-.062 3.115 3.115 0 0 0 -2.82 1.77l-5.8 12.23h6.88l.948-2h-.962a2 2 0 0 1 -1.816-2.838z" fill="#eaaf79"/><path d="m61.5 33.656a1.356 1.356 0 0 0 -1.5 1.137v10.229a1.558 1.558 0 0 0 3 0v-10.229a1.356 1.356 0 0 0 -1.5-1.137z" fill="#fffbf4"/><path d="m61.5 46.159a1.356 1.356 0 0 1 -1.5-1.137v2.841a1.558 1.558 0 0 0 3 0v-2.841a1.356 1.356 0 0 1 -1.5 1.137z" fill="#e0dbd3"/><path d="m24.5 33.656a1.356 1.356 0 0 0 -1.5 1.137v10.229a1.356 1.356 0 0 0 1.5 1.137 1.356 1.356 0 0 0 1.5-1.137v-10.229a1.356 1.356 0 0 0 -1.5-1.137z" fill="#b4aaa1"/><path d="m24.5 46.159a1.356 1.356 0 0 1 -1.5-1.137v2.841a1.356 1.356 0 0 0 1.5 1.137 1.356 1.356 0 0 0 1.5-1.137v-2.841a1.356 1.356 0 0 1 -1.5 1.137z" fill="#978d7e"/><path d="m57 19h-2.76l-.949 2h4.999z" fill="#d0c6b8"/><path d="m27.9 26h.1l1.835-3.058a4 4 0 0 1 3.43-1.942h13.146l.949-2h-18.36l-3.56 5.52a20.033 20.033 0 0 0 -2.44 9.58v.693a1.356 1.356 0 0 1 1.5-1.137 1.356 1.356 0 0 1 1.5 1.137v.207h.02a25.5 25.5 0 0 1 1.88-9z" fill="#d0c6b8"/><circle cx="54" cy="32" fill="#a30d0d" r="2"/><path d="m53 31a1.974 1.974 0 0 1 .181-.819 2 2 0 1 0 2.638 2.638 1.974 1.974 0 0 1 -.819.181 2.006 2.006 0 0 1 -2-2z" fill="#881214"/><path d="m52 32a1.974 1.974 0 0 1 .181-.819 2 2 0 1 0 2.638 2.638 1.974 1.974 0 0 1 -.819.181 2.006 2.006 0 0 1 -2-2z" fill="#f93623"/><path d="m37 50a1.974 1.974 0 0 1 .181-.819 2 2 0 1 0 2.638 2.638 1.974 1.974 0 0 1 -.819.181 2.006 2.006 0 0 1 -2-2z" fill="#f93623"/><path d="m31 45a1.974 1.974 0 0 1 .181-.819 2 2 0 1 0 2.638 2.638 1.974 1.974 0 0 1 -.819.181 2.006 2.006 0 0 1 -2-2z" fill="#f93623"/><path d="m38 49a1.974 1.974 0 0 1 .181-.819 2 2 0 1 0 2.638 2.638 1.974 1.974 0 0 1 -.819.181 2.006 2.006 0 0 1 -2-2z" fill="#881214"/><path d="m32 44a1.974 1.974 0 0 1 .181-.819 2 2 0 1 0 2.638 2.638 1.974 1.974 0 0 1 -.819.181 2.006 2.006 0 0 1 -2-2z" fill="#881214"/><path d="m37.84 31.35c1.8 1.79 3.09 6 1.3 7.79s-6 .5-7.79-1.3a4.589 4.589 0 1 1 6.49-6.49z" fill="#a30d0d"/><path d="m31.35 37.84a4.559 4.559 0 0 1 -.829-5.319 4.51 4.51 0 0 0 -1.171.829 4.575 4.575 0 0 0 0 6.49c1.79 1.8 6 3.09 7.79 1.3a2.828 2.828 0 0 0 .712-1.288c-2.052.553-5.061-.563-6.502-2.012z" fill="#f93623"/><path d="m32.35 34.84a4.547 4.547 0 0 1 -1.334-3.083 4.559 4.559 0 0 0 .334 6.083c1.79 1.8 6 3.09 7.79 1.3a3.616 3.616 0 0 0 .841-2.869c-1.866 1.579-5.89.32-7.631-1.431z" fill="#881214"/><path d="m51 40a5 5 0 0 1 5 5c0 2.76-2.24 7-5 7s-5-4.24-5-7a5 5 0 0 1 5-5z" fill="#a30d0d"/><path d="m46 45a4.944 4.944 0 0 1 .626-2.374 4.979 4.979 0 0 0 -2.626 4.374c0 2.76 2.24 7 5 7a4.561 4.561 0 0 0 3.5-2.421 3.058 3.058 0 0 1 -1.5.421c-2.76 0-5-4.24-5-7z" fill="#f93623"/><path d="m49 45a4.984 4.984 0 0 1 3.5-4.745 4.936 4.936 0 0 0 -1.5-.255 5 5 0 0 0 -5 5c0 2.76 2.24 7 5 7a3.061 3.061 0 0 0 1.5-.418c-2.028-1.136-3.5-4.345-3.5-6.582z" fill="#881214"/><path d="m31 52.31a3.958 3.958 0 0 1 -5.85 0 4.128 4.128 0 0 1 5.85 0z" fill="#629026"/><path d="m23.69 45a4.128 4.128 0 0 1 0 5.85 3.958 3.958 0 0 1 0-5.85z" fill="#629026"/><path d="m2 45a4 4 0 0 1 4 4 3.82 3.82 0 0 1 -4-4z" fill="#629026"/><path d="m7.01 43a3.833 3.833 0 0 1 0 6h-.01c-1.45-1.25-2.6-3.76.01-6z" fill="#629026"/><path d="m9 33a4 4 0 0 1 4 4 3.82 3.82 0 0 1 -4-4z" fill="#629026"/><path d="m19 33a3.82 3.82 0 0 1 -4 4 4 4 0 0 1 4-4z" fill="#629026"/><path d="m28.81 47.2a3.955 3.955 0 0 1 -4.38 4.38c-.15-1.96.83-4.65 4.38-4.38z" fill="#7fb734"/><path d="m14.01 31a3.833 3.833 0 0 1 0 6h-.01c-1.45-1.25-2.6-3.76.01-6z" fill="#7fb734"/><path d="m7.01 49a5.917 5.917 0 0 1 5.99 5.83c0 3.22-2.69 8.17-6 8.17s-6-4.95-6-8.17a5.919 5.919 0 0 1 6-5.83z" fill="#c50d0d"/><path d="m24.42 51.58a6.19 6.19 0 0 1 1.42 6.68 5.877 5.877 0 0 1 -1.3 1.97c-2.35 2.35-7.93 4-10.35 1.58s-.77-8 1.58-10.35a6.073 6.073 0 0 1 7.87-.54 5.935 5.935 0 0 1 .78.66z" fill="#c50d0d"/><path d="m14.01 37a5.917 5.917 0 0 1 5.99 5.83c0 3.22-2.69 8.17-6 8.17s-6-4.95-6-8.17a5.919 5.919 0 0 1 6-5.83z" fill="#c50d0d"/><path d="m10 39.83a5.646 5.646 0 0 1 .213-1.519 5.756 5.756 0 0 0 -2.213 4.519c0 3.22 2.69 8.17 6 8.17 2.173 0 4.072-2.134 5.125-4.511a4.525 4.525 0 0 1 -3.125 1.511c-3.31 0-6-4.95-6-8.17z" fill="#a30d0d"/><path d="m3 51.83a5.646 5.646 0 0 1 .213-1.519 5.756 5.756 0 0 0 -2.213 4.519c0 3.22 2.69 8.17 6 8.17 2.173 0 4.072-2.134 5.125-4.511a4.525 4.525 0 0 1 -3.125 1.511c-3.31 0-6-4.95-6-8.17z" fill="#a30d0d"/><path d="m19.77 51.46a5.85 5.85 0 0 1 2.23-1.375 5.992 5.992 0 0 0 -6.23 1.375c-2.35 2.35-4 7.93-1.58 10.35 1.281 1.281 3.446 1.415 5.55.915a3.828 3.828 0 0 1 -1.55-.915c-2.42-2.42-.77-8 1.58-10.35z" fill="#a30d0d"/><circle cx="52" cy="44" fill="#71160a" r="1"/><circle cx="49" cy="46" fill="#71160a" r="1"/><circle cx="49" cy="37" fill="#dd1212" r="1"/><circle cx="38" cy="45" fill="#dd1212" r="1"/><circle cx="46" cy="56" fill="#dd1212" r="1"/><circle cx="44" cy="53" fill="#dd1212" r="1"/><circle cx="40" cy="57" fill="#dd1212" r="1"/><circle cx="46" cy="35" fill="#dd1212" r="1"/><circle cx="40" cy="28" fill="#dd1212" r="1"/><circle cx="51" cy="30" fill="#dd1212" r="1"/><g fill="#71160a"><circle cx="52" cy="48" r="1"/><circle cx="35" cy="33" r="1"/><circle cx="34" cy="36" r="1"/><circle cx="37" cy="37" r="1"/><circle cx="18" cy="54" r="1"/><circle cx="14" cy="41" r="1"/><circle cx="18" cy="60" r="1"/><circle cx="15" cy="57" r="1"/><circle cx="22" cy="59" r="1"/><circle cx="17" cy="44" r="1"/><circle cx="15" cy="47" r="1"/><circle cx="11" cy="43" r="1"/><circle cx="7" cy="53" r="1"/><circle cx="10" cy="56" r="1"/><circle cx="8" cy="59" r="1"/><circle cx="4" cy="55" r="1"/></g><ellipse cx="56.684" cy="36.695" fill="#f7fafd" rx="1.642" ry="2.286" transform="matrix(.707 -.707 .707 .707 -9.34 50.852)"/><ellipse cx="56.682" cy="41.708" fill="#f7fafd" rx=".825" ry="1.148" transform="matrix(.707 -.707 .707 .707 -12.887 52.32)"/><ellipse cx="17.682" cy="40.708" fill="#f7fafd" rx=".825" ry="1.148" transform="matrix(.707 -.707 .707 .707 -23.612 24.44)"/><ellipse cx="9.682" cy="52.708" fill="#f7fafd" rx=".825" ry="1.148" transform="matrix(.707 -.707 .707 .707 -34.445 22.299)"/><ellipse cx="20.682" cy="52.708" fill="#f7fafd" rx=".825" ry="1.148" transform="matrix(.707 -.707 .707 .707 -31.22 30.08)"/><ellipse cx="55.427" cy="11.208" fill="#f7fafd" rx=".413" ry=".574" transform="matrix(.707 -.707 .707 .707 8.32 42.492)"/><rect fill="#eeeae3" height="2" rx="1" width="18" x="35" y="15"/><rect fill="#eeeae3" height="2" rx=".977" width="3" x="54.5" y="15.008"/></g></svg>