<svg clip-rule="evenodd" fill-rule="evenodd" height="512" stroke-linejoin="round" stroke-miterlimit="2" viewBox="0 0 24 24" width="512" xmlns="http://www.w3.org/2000/svg"><g id="Icon"><path d="m18.75 3.502c0-.002 0-.003 0-.004 0-.596-.237-1.168-.658-1.59-.422-.421-.994-.658-1.59-.658-2.306 0-6.698 0-9.004 0-.596 0-1.168.237-1.59.658-.421.422-.658.994-.658 1.59v.004c0 .596.237 1.168.658 1.589.422.422.994.659 1.59.659h9.004c.596 0 1.168-.237 1.59-.659.421-.421.658-.993.658-1.589z"/><path d="m4.882 9.982-.106.172c-.663 1.066-1.015 2.297-1.016 3.553-.002 1.743-.005 4.446-.008 6.289 0 .73.289 1.43.805 1.947.516.516 1.215.806 1.945.806h11.008c.73 0 1.429-.29 1.945-.806.516-.517.805-1.217.805-1.947-.003-1.84-.006-4.539-.008-6.282-.001-1.261-.356-2.496-1.023-3.565l-.127-.204c-.552.159-1.16.103-1.689-.192-.018-.01-.043-.003-.075-.003-.16 0-.226.095-.304.158-.077.062-.154.122-.235.178-.521.362-1.123.664-2.126.664s-1.605-.302-2.127-.664c-.081-.056-.157-.116-.234-.178-.079-.063-.145-.158-.305-.158s-.226.095-.305.158c-.076.062-.153.122-.234.178-.522.362-1.124.664-2.127.664s-1.605-.302-2.127-.663c-.081-.056-.158-.116-.235-.178-.079-.064-.147-.159-.309-.159h-.003c-.02.012-.041.024-.062.036-.54.302-1.161.359-1.723.196zm8.83 9.768c1.126 0 2.039-.914 2.039-2.038v-2.424c0-1.125-.913-2.038-2.039-2.038h-3.424c-1.126 0-2.037.913-2.037 2.038v2.424c0 1.125.911 2.038 2.038 2.038z"/><path d="m5.355 5.943-.847 1.129c-.353.472-.329 1.128.06 1.572.388.444 1.035.556 1.55.269.028-.016.055-.033.081-.052.111-.083.261-.111.471-.111.589 0 .807.303 1.112.515.383.264.824.485 1.559.485s1.175-.221 1.557-.486c.305-.211.523-.514 1.109-.514.587 0 .804.303 1.109.514.382.265.822.486 1.557.486.734 0 1.175-.221 1.557-.486.305-.211.522-.514 1.108-.514.246 0 .418.05.56.129.5.278 1.128.169 1.505-.263.374-.428.401-1.057.067-1.515-.27-.379-.562-.781-.833-1.151-.59.514-1.348.8-2.135.8-2.306 0-6.698 0-9.004 0-.791 0-1.552-.289-2.143-.807z"/></g></svg>