<svg xmlns="http://www.w3.org/2000/svg" viewBox="0 0 512 512">
  <path fill="#4A2E2B" d="M380.5 178.6c-45-56-128.5-62.5-195.5-35.5-85 34-115 110-105 195s95 135 185 115 170-110 170-205c0-26.5-19.5-43.5-54.5-69.5z"/>
  <path fill="#F2A19A" d="M370.5 188.6c-40-50-115-55-175-30-75 30-102 98-93 174s85 120 165 102 152-98 152-183c0-23.7-17.4-38.8-49-63z"/>
  <circle fill="#FDFBF7" cx="210" cy="220" r="45"/>
  <circle fill="#4A2E2B" cx="210" cy="220" r="22"/>
  <path fill="none" stroke="#FDFBF7" stroke-width="20" stroke-linecap="round" d="M120 330c30 40 90 70 160 50s120-60 120-110"/>
</svg>