<svg id="Capa_1" enable-background="new 0 0 512 512" height="512" viewBox="0 0 512 512" width="512" xmlns="http://www.w3.org/2000/svg"><g><path d="m271 111.772v99.228h57.065c-7.302-11.632-17.408-21.436-29.598-28.514-7.164-4.16-9.599-13.339-5.44-20.503v-.001c4.16-7.164 13.339-9.599 20.503-5.439 25.012 14.523 43.537 37.588 52.161 64.947v.001c3.047 9.666-4.171 19.509-14.305 19.509h-190.774c-10.135 0-17.353-9.843-14.305-19.509v-.001c8.624-27.359 27.149-50.424 52.161-64.947 7.164-4.16 16.343-1.724 20.503 5.439v.001c4.16 7.164 1.724 16.344-5.44 20.503-12.189 7.078-22.296 16.881-29.598 28.514h57.067v-99.228c-72.932 7.53-130 69.339-130 144.228s57.068 136.698 130 144.228v-99.228h-57.065c7.302 11.632 17.408 21.436 29.598 28.514 7.164 4.16 9.599 13.339 5.44 20.503v.001c-4.16 7.164-13.339 9.599-20.503 5.439-25.012-14.523-43.537-37.588-52.161-64.947v-.001c-3.047-9.666 4.171-19.509 14.305-19.509h190.776c10.135 0 17.353 9.843 14.305 19.509v.001c-8.624 27.359-27.149 50.424-52.161 64.947-7.164 4.16-16.343 1.725-20.503-5.439v-.001c-4.16-7.164-1.724-16.344 5.44-20.503 12.189-7.078 22.296-16.881 29.598-28.514h-57.069v99.228c72.932-7.53 130-69.339 130-144.228s-57.068-136.698-130-144.228z"/><path d="m512 256c0-24.09-11.575-46.419-30.471-60.431 9.358-21.582 8.218-46.707-3.827-67.569s-33.233-34.412-56.604-37.099c-2.687-23.37-16.235-44.558-37.099-56.603-20.862-12.045-45.986-13.185-67.569-3.828-14.012-18.895-36.34-30.47-60.43-30.47-24.091 0-46.419 11.575-60.43 30.47-21.582-9.357-46.707-8.219-67.57 3.828-20.862 12.045-34.412 33.234-37.099 56.604-23.368 2.688-44.559 16.237-56.603 37.098-12.045 20.863-13.186 45.987-3.827 67.569-18.896 14.012-30.471 36.341-30.471 60.431s11.575 46.419 30.471 60.431c-9.358 21.582-8.218 46.707 3.827 67.569s33.233 34.412 56.604 37.099c2.687 23.37 16.235 44.558 37.099 56.603 20.862 12.046 45.987 13.186 67.569 3.827 14.011 18.895 36.34 30.471 60.43 30.471s46.418-11.575 60.431-30.471c21.581 9.357 46.707 8.219 67.569-3.827 20.862-12.045 34.412-33.233 37.099-56.604 23.368-2.688 44.56-16.238 56.604-37.099 12.045-20.863 13.186-45.987 3.827-67.569 18.895-14.011 30.47-36.34 30.47-60.43zm-256 175c-96.495 0-175-78.505-175-175s78.505-175 175-175 175 78.505 175 175-78.505 175-175 175z"/></g></svg>