<svg id="Capa_1" enable-background="new 0 0 512.005 512.005" viewBox="0 0 512.005 512.005" xmlns="http://www.w3.org/2000/svg"><g><g><g><path d="m111.777 35.604h-51.509c-4.142 0-7.5-3.358-7.5-7.5s3.358-7.5 7.5-7.5h51.509c4.142 0 7.5 3.358 7.5 7.5s-3.358 7.5-7.5 7.5z" fill="#555a66"/></g><g><path d="m111.777 61.509h-51.509c-4.142 0-7.5-3.358-7.5-7.5s3.358-7.5 7.5-7.5h51.509c4.142 0 7.5 3.358 7.5 7.5s-3.358 7.5-7.5 7.5z" fill="#555a66"/></g><g><path d="m111.777 87.415h-51.509c-4.142 0-7.5-3.358-7.5-7.5s3.358-7.5 7.5-7.5h51.509c4.142 0 7.5 3.358 7.5 7.5s-3.358 7.5-7.5 7.5z" fill="#555a66"/></g><g><path d="m111.777 113.32h-51.509c-4.142 0-7.5-3.358-7.5-7.5s3.358-7.5 7.5-7.5h51.509c4.142 0 7.5 3.358 7.5 7.5s-3.358 7.5-7.5 7.5z" fill="#555a66"/></g></g><g><path d="m491.399 46.358h-163.284c-22.519 0-41.207 9.225-41.207 20.604s17.781 20.604 41.207 20.604h163.284c11.379 0 20.604-9.225 20.604-20.604s-9.225-20.604-20.604-20.604z" fill="#636978"/></g><g><path d="m307.512 66.962c0-11.379 9.225-20.604 20.604-20.604h-42.185c-12.997 0-25.583-4.557-35.568-12.877-9.985-8.321-22.57-12.877-35.568-12.877h-20.604v92.716h20.604c12.997 0 25.583-4.557 35.568-12.877 9.985-8.321 22.57-12.877 35.568-12.877h42.185c-11.38-.001-20.604-9.225-20.604-20.604z" fill="#555a66"/></g><g><circle cx="349.833" cy="285.365" fill="#ff9b87" r="52.624"/></g><g><path d="m338.417 285.365c0-21.751 13.197-40.417 32.02-48.434-6.328-2.695-13.291-4.19-20.604-4.19-29.063 0-52.624 23.56-52.624 52.624 0 29.063 23.56 52.624 52.624 52.624 7.313 0 14.275-1.494 20.604-4.19-18.823-8.017-32.02-26.683-32.02-48.434z" fill="#ff8870"/></g><g><path d="m152.985 216.611c20.604 0 30.263-41.207 30.263-41.207l-9.659-154.8c-.001-11.379-9.225-20.604-20.604-20.604s-20.604 9.225-20.604 20.604l-9.659 154.8s9.659 41.207 30.263 41.207z" fill="#ffdf61"/></g><g><path d="m183.247 175.404h-9.659c0 11.379-9.225 20.604-20.604 20.604s-20.604-9.225-20.604-20.604h-9.659l-10.945 175.404h82.414z" fill="#ffd154"/></g><g><path d="m194.192 0c-11.379 0-20.604 9.225-20.604 20.604v154.8c0 20.009 9.225 41.207 20.604 41.207s20.604-19.838 20.604-41.207v-154.8c-.001-11.379-9.225-20.604-20.604-20.604z" fill="#ffee6e"/></g><g><path d="m194.192 196.007c-11.379 0-20.604-9.225-20.604-20.604v175.404h41.207v-175.403c0 11.379-9.224 20.603-20.603 20.603z" fill="#ffdf61"/></g><g><path d="m111.777 0c-11.379 0-20.604 9.225-20.604 20.604v154.8c0 20.009 9.225 41.207 20.604 41.207s20.604-19.838 20.604-41.207v-154.8c0-11.379-9.225-20.604-20.604-20.604z" fill="#ffee6e"/></g><g><path d="m111.777 196.007c-11.379 0-20.604-9.225-20.604-20.604v175.404h41.207v-175.403c.001 11.379-9.224 20.603-20.603 20.603z" fill="#ffdf61"/></g><g><path d="m256.003 244.158c-11.361 0-41.207 9.243-41.207 20.604v206.036c0 11.361 29.846 20.604 41.207 20.604 68.274 0 123.622-55.347 123.622-123.622s-55.348-123.622-123.622-123.622z" fill="#ffc247"/></g><g><path d="m235.399 470.798c0-11.361 9.243-20.604 20.604-20.604v-164.829c-11.361 0-20.604-9.243-20.604-20.604s9.243-20.604 20.604-20.604c-68.274 0-123.622 55.347-123.622 123.622s55.347 123.622 123.622 123.622c-11.361.001-20.604-9.242-20.604-20.603z" fill="#ffac48"/></g><g><path d="m256.003 285.365c-11.361 0-30.905 9.243-30.905 20.603v123.622c0 11.361 19.544 20.603 30.905 20.603 45.444 0 82.414-36.971 82.414-82.414s-36.971-82.414-82.414-82.414z" fill="#ffd154"/></g><g><path d="m235.399 429.591c0-11.361 9.243-20.604 20.604-20.604v-82.415c-11.361 0-20.604-9.243-20.604-20.604s9.243-20.603 20.604-20.603c-45.444 0-82.414 36.971-82.414 82.414s36.971 82.414 82.414 82.414c-11.361.001-20.604-9.241-20.604-20.602z" fill="#ffc247"/></g><g><circle cx="256.003" cy="367.78" fill="#ffac48" r="41.207"/></g><g><path d="m359.021 305.969c-11.361 0-41.207 9.243-41.207 20.604s41.207 122.87 41.207 122.87h122.027c1.044-6.464 1.594-13.094 1.594-19.852 0-68.275-55.347-123.622-123.621-123.622z" fill="#ffee6e"/></g><g><path d="m359.021 449.443v-102.267c-11.361 0-20.603-9.243-20.603-20.603 0-11.361 9.243-20.604 20.603-20.604-68.274 0-123.622 55.347-123.622 123.622 0 6.759.551 13.388 1.594 19.852z" fill="#ffdf61"/></g><g><path d="m359.021 347.176c-11.361 0-30.905 9.243-30.905 20.603 0 11.361 30.905 81.663 30.905 81.663h79.982c1.58-6.362 2.433-13.009 2.433-19.852-.001-45.443-36.972-82.414-82.415-82.414z" fill="#ffdf61"/></g><g><path d="m359.021 449.443v-61.06c-11.361 0-20.603-9.243-20.603-20.604s9.243-20.603 20.603-20.603c-45.444 0-82.414 36.971-82.414 82.414 0 6.844.853 13.49 2.433 19.852h79.981z" fill="#ffd154"/></g><g><path d="m395.117 449.443c3.254-5.892 5.111-12.659 5.111-19.852 0-22.722-18.485-41.207-41.207-41.207s-41.207 18.485-41.207 41.207c0 7.194 1.858 13.96 5.111 19.852z" fill="#ffc247"/></g><g><path d="m152.985 305.969c-11.361 0-41.207 9.243-41.207 20.604s41.207 122.87 41.207 122.87h122.027c1.044-6.464 1.594-13.094 1.594-19.852 0-68.275-55.347-123.622-123.621-123.622z" fill="#ffee6e"/></g><g><path d="m152.985 449.443v-102.267c-11.361 0-20.604-9.243-20.604-20.603 0-11.361 9.243-20.604 20.604-20.604-68.274 0-123.622 55.347-123.622 123.622 0 6.759.551 13.388 1.594 19.852z" fill="#ffdf61"/></g><g><g><path d="m140.313 299.59c-21.624 0-51.509 26.091-51.509 47.211s29.885 47.211 51.509 47.211c18.189-7.95 30.905-26.091 30.905-47.211.001-21.12-12.716-39.262-30.905-47.211z" fill="#ff9b87"/></g></g><g><path d="m109.408 346.801c0-21.12 12.716-39.261 30.905-47.211-6.311-2.758-13.276-4.298-20.604-4.298-28.448 0-51.509 23.061-51.509 51.509s23.061 51.509 51.509 51.509c7.328 0 14.293-1.54 20.604-4.298-18.189-7.95-30.905-26.092-30.905-47.211z" fill="#ff8870"/></g><g><path d="m152.985 347.176c-11.361 0-30.905 9.243-30.905 20.603 0 11.361 30.905 81.663 30.905 81.663h79.982c1.58-6.362 2.433-13.009 2.433-19.852-.001-45.443-36.972-82.414-82.415-82.414z" fill="#ffdf61"/></g><g><path d="m152.985 449.443v-61.06c-11.361 0-20.604-9.243-20.604-20.604s9.243-20.603 20.604-20.603c-45.444 0-82.414 36.971-82.414 82.414 0 6.844.853 13.49 2.433 19.852h79.981z" fill="#ffd154"/></g><g><path d="m189.08 449.443c3.254-5.892 5.111-12.659 5.111-19.852 0-22.722-18.485-41.207-41.207-41.207s-41.207 18.485-41.207 41.207c0 7.194 1.858 13.96 5.111 19.852z" fill="#ffc247"/></g><g><path d="m453.966 411.747c0-15.251-8.289-28.557-20.604-35.68-18.208 1.64-30.905 20.431-30.905 35.68 0 15.25 10.656 29.661 30.905 35.68 12.315-7.123 20.604-20.43 20.604-35.68z" fill="#ff9b87"/></g><g><path d="m412.759 411.747c0-15.25 8.29-28.555 20.604-35.681-6.062-3.508-13.095-5.527-20.604-5.527-22.758 0-41.207 18.449-41.207 41.207s18.449 41.207 41.207 41.207c7.508 0 14.541-2.018 20.604-5.527-12.314-7.125-20.604-20.43-20.604-35.679z" fill="#ff8870"/></g><g><g><path d="m490.905 429.591h-360.068c-27.331 0-42.648 13.951-43.045 25.116-.296 8.323 6.397 57.299 100.583 57.299h244.992c17.077 0 33.156-8.04 43.402-21.701l4.032-5.376c5.239-6.985 12.186-12.402 19.961-16.375 6.88-3.516 11.523-10.786 11.227-19.109-.397-11.167-9.912-19.854-21.084-19.854z" fill="#f5fafc"/></g></g><g><path d="m144.973 490.304-4.032-5.376c-5.239-6.985-12.186-12.402-19.961-16.376-6.88-3.516-11.523-10.786-11.227-19.109.397-11.165 9.912-19.852 21.084-19.852h-109.737c-11.172 0-20.687 8.687-21.084 19.852-.296 8.323 4.347 15.593 11.227 19.109 7.775 3.974 14.722 9.39 19.961 16.376l4.032 5.376c10.246 13.661 26.326 21.701 43.402 21.701h109.737c-17.077 0-33.157-8.04-43.402-21.701z" fill="#e1f1fa"/></g></g><g/><g/><g/><g/><g/><g/><g/><g/><g/><g/><g/><g/><g/><g/><g/></svg>