<svg clip-rule="evenodd" fill-rule="evenodd" stroke-linejoin="round" stroke-miterlimit="2" viewBox="0 0 24 24" xmlns="http://www.w3.org/2000/svg"><g id="Icon"><path d="m7.25 21.145c-3.397-1.678-5.782-5.097-5.986-9.088 0-.004 0-.008 0-.011-.013-.338.113-.667.348-.911.235-.243.558-.381.896-.381 2.789-.002 16.194-.003 18.982-.004.34 0 .665.138.901.382.236.245.362.575.35.914-.001.004-.001.008-.001.011-.207 3.991-2.593 7.411-5.99 9.088v.355c0 .69-.56 1.25-1.25 1.25h-7c-.69 0-1.25-.56-1.25-1.25z"/><path d="m21 4.75c.414 0 .75.336.75.75s-.336.75-.75.75h-8c-.414 0-.75-.336-.75-.75s.336-.75.75-.75z"/><path d="m5.5 4.75c.414 0 .75.336.75.75s-.336.75-.75.75h-1.5c-.414 0-.75-.336-.75-.75s.336-.75.75-.75z"/><path d="m20.956 1.251c.413-.024.768.292.793.705.024.413-.292.768-.705.793l-17 1c-.413.024-.768-.292-.793-.705-.024-.413.292-.768.705-.793z"/><path d="m4.75 2c0-.414.336-.75.75-.75s.75.336.75.75v9.5c0 .414-.336.75-.75.75s-.75-.336-.75-.75z"/><path d="m9.75 2c0-.414.336-.75.75-.75s.75.336.75.75v9.5c0 .414-.336.75-.75.75s-.75-.336-.75-.75z"/><path d="m7.25 2c0-.414.336-.75.75-.75s.75.336.75.75v9.5c0 .414-.336.75-.75.75s-.75-.336-.75-.75z"/><path d="m12.25 2c0-.414.336-.75.75-.75s.75.336.75.75v9.5c0 .414-.336.75-.75.75s-.75-.336-.75-.75z"/></g></svg>