<svg xmlns="http://www.w3.org/2000/svg" width="670" height="670" viewBox="0 0 670 670" fill="none">
  <g fill="#000">
    <path d="M 334 274 L 333 275 L 328 275 L 327 276 L 324 276 L 323 277 L 320 277 L 319 278 L 317 278 L 316 279 L 315 279 L 314 280 L 313 280 L 312 281 L 311 281 L 310 282 L 309 282 L 308 283 L 307 283 L 305 285 L 304 285 L 301 288 L 300 288 L 288 300 L 288 301 L 284 305 L 284 306 L 281 309 L 281 310 L 279 312 L 279 313 L 277 315 L 277 316 L 275 318 L 275 319 L 273 321 L 273 322 L 271 324 L 271 325 L 269 327 L 269 328 L 268 329 L 268 330 L 266 332 L 266 333 L 264 335 L 264 336 L 263 337 L 263 338 L 261 340 L 261 341 L 260 342 L 260 343 L 258 345 L 258 346 L 256 348 L 256 349 L 253 352 L 253 353 L 243 363 L 242 363 L 238 367 L 237 367 L 235 369 L 234 369 L 232 371 L 231 371 L 229 373 L 228 373 L 226 375 L 225 375 L 224 376 L 223 376 L 221 378 L 220 378 L 218 380 L 217 380 L 216 381 L 215 381 L 213 383 L 212 383 L 211 384 L 210 384 L 208 386 L 207 386 L 205 388 L 204 388 L 202 390 L 201 390 L 199 392 L 198 392 L 194 396 L 193 396 L 183 406 L 183 407 L 180 410 L 180 411 L 178 413 L 178 414 L 177 415 L 177 416 L 176 417 L 176 418 L 175 419 L 175 420 L 174 421 L 174 423 L 173 424 L 173 425 L 172 426 L 172 428 L 171 429 L 171 432 L 170 433 L 170 438 L 169 439 L 169 458 L 170 459 L 170 463 L 171 464 L 171 467 L 172 468 L 172 470 L 173 471 L 173 473 L 174 474 L 174 475 L 175 476 L 175 477 L 176 478 L 176 479 L 177 480 L 177 481 L 178 482 L 178 483 L 180 485 L 180 486 L 182 488 L 182 489 L 193 500 L 194 500 L 197 503 L 198 503 L 200 505 L 201 505 L 202 506 L 203 506 L 204 507 L 205 507 L 206 508 L 207 508 L 208 509 L 210 509 L 211 510 L 213 510 L 214 511 L 217 511 L 218 512 L 222 512 L 223 513 L 239 513 L 240 512 L 246 512 L 247 511 L 252 511 L 253 510 L 256 510 L 257 509 L 260 509 L 261 508 L 264 508 L 265 507 L 267 507 L 268 506 L 271 506 L 272 505 L 274 505 L 275 504 L 277 504 L 278 503 L 280 503 L 281 502 L 283 502 L 284 501 L 287 501 L 288 500 L 290 500 L 291 499 L 293 499 L 294 498 L 296 498 L 297 497 L 299 497 L 300 496 L 302 496 L 303 495 L 306 495 L 307 494 L 309 494 L 310 493 L 313 493 L 314 492 L 317 492 L 318 491 L 321 491 L 322 490 L 326 490 L 327 489 L 332 489 L 333 488 L 354 488 L 355 489 L 360 489 L 361 490 L 366 490 L 367 491 L 370 491 L 371 492 L 374 492 L 375 493 L 377 493 L 378 494 L 381 494 L 382 495 L 384 495 L 385 496 L 387 496 L 388 497 L 390 497 L 391 498 L 393 498 L 394 499 L 397 499 L 398 500 L 400 500 L 401 501 L 403 501 L 404 502 L 406 502 L 407 503 L 409 503 L 410 504 L 412 504 L 413 505 L 415 505 L 416 506 L 419 506 L 420 507 L 422 507 L 423 508 L 426 508 L 427 509 L 430 509 L 431 510 L 434 510 L 435 511 L 440 511 L 441 512 L 447 512 L 448 513 L 463 513 L 464 512 L 469 512 L 470 511 L 473 511 L 474 510 L 476 510 L 477 509 L 479 509 L 480 508 L 481 508 L 482 507 L 483 507 L 484 506 L 485 506 L 486 505 L 487 505 L 489 503 L 490 503 L 493 500 L 494 500 L 504 490 L 504 489 L 507 486 L 507 485 L 508 484 L 508 483 L 510 481 L 510 480 L 511 479 L 511 478 L 512 477 L 512 476 L 513 475 L 513 473 L 514 472 L 514 471 L 515 470 L 515 467 L 516 466 L 516 463 L 517 462 L 517 458 L 518 457 L 518 440 L 517 439 L 517 434 L 516 433 L 516 430 L 515 429 L 515 427 L 514 426 L 514 424 L 513 423 L 513 422 L 512 421 L 512 419 L 511 418 L 511 417 L 510 416 L 510 415 L 508 413 L 508 412 L 506 410 L 506 409 L 503 406 L 503 405 L 494 396 L 493 396 L 489 392 L 488 392 L 486 390 L 485 390 L 483 388 L 482 388 L 480 386 L 479 386 L 477 384 L 476 384 L 475 383 L 474 383 L 472 381 L 471 381 L 470 380 L 469 380 L 467 378 L 466 378 L 464 376 L 463 376 L 462 375 L 461 375 L 459 373 L 458 373 L 456 371 L 455 371 L 453 369 L 452 369 L 450 367 L 449 367 L 445 363 L 444 363 L 433 352 L 433 351 L 430 348 L 430 347 L 429 346 L 429 345 L 427 343 L 427 342 L 425 340 L 425 339 L 424 338 L 424 337 L 422 335 L 422 334 L 421 333 L 421 332 L 419 330 L 419 329 L 418 328 L 418 327 L 416 325 L 416 324 L 414 322 L 414 321 L 412 319 L 412 318 L 410 316 L 410 315 L 408 313 L 408 312 L 406 310 L 406 309 L 403 306 L 403 305 L 398 300 L 398 299 L 388 289 L 387 289 L 383 285 L 382 285 L 380 283 L 379 283 L 378 282 L 377 282 L 376 281 L 375 281 L 374 280 L 373 280 L 372 279 L 370 279 L 369 278 L 368 278 L 367 277 L 364 277 L 363 276 L 360 276 L 359 275 L 354 275 L 353 274 Z"/><path d="M 528 202 L 527 203 L 522 203 L 521 204 L 519 204 L 518 205 L 516 205 L 515 206 L 513 206 L 512 207 L 511 207 L 510 208 L 509 208 L 508 209 L 507 209 L 506 210 L 505 210 L 503 212 L 502 212 L 500 214 L 499 214 L 496 217 L 495 217 L 481 231 L 481 232 L 478 235 L 478 236 L 475 239 L 475 240 L 474 241 L 474 242 L 472 244 L 472 245 L 471 246 L 471 247 L 470 248 L 470 249 L 468 251 L 468 252 L 467 253 L 467 255 L 466 256 L 466 257 L 465 258 L 465 259 L 464 260 L 464 262 L 463 263 L 463 264 L 462 265 L 462 267 L 461 268 L 461 271 L 460 272 L 460 274 L 459 275 L 459 278 L 458 279 L 458 283 L 457 284 L 457 291 L 456 292 L 456 310 L 457 311 L 457 317 L 458 318 L 458 321 L 459 322 L 459 325 L 460 326 L 460 328 L 461 329 L 461 330 L 462 331 L 462 332 L 463 333 L 463 334 L 464 335 L 464 336 L 465 337 L 465 338 L 466 339 L 466 340 L 469 343 L 469 344 L 477 352 L 478 352 L 480 354 L 481 354 L 482 355 L 483 355 L 484 356 L 485 356 L 486 357 L 487 357 L 488 358 L 489 358 L 490 359 L 493 359 L 494 360 L 498 360 L 499 361 L 511 361 L 512 360 L 517 360 L 518 359 L 520 359 L 521 358 L 523 358 L 524 357 L 526 357 L 527 356 L 528 356 L 529 355 L 530 355 L 531 354 L 532 354 L 533 353 L 534 353 L 536 351 L 537 351 L 539 349 L 540 349 L 542 347 L 543 347 L 559 331 L 559 330 L 562 327 L 562 326 L 564 324 L 564 323 L 566 321 L 566 320 L 567 319 L 567 318 L 569 316 L 569 315 L 570 314 L 570 313 L 571 312 L 571 311 L 572 310 L 572 309 L 573 308 L 573 306 L 574 305 L 574 304 L 575 303 L 575 302 L 576 301 L 576 299 L 577 298 L 577 296 L 578 295 L 578 293 L 579 292 L 579 289 L 580 288 L 580 285 L 581 284 L 581 280 L 582 279 L 582 272 L 583 271 L 583 253 L 582 252 L 582 247 L 581 246 L 581 242 L 580 241 L 580 239 L 579 238 L 579 236 L 578 235 L 578 233 L 577 232 L 577 231 L 576 230 L 576 229 L 575 228 L 575 227 L 574 226 L 574 225 L 573 224 L 573 223 L 570 220 L 570 219 L 562 211 L 561 211 L 559 209 L 558 209 L 557 208 L 556 208 L 555 207 L 554 207 L 553 206 L 552 206 L 551 205 L 550 205 L 549 204 L 546 204 L 545 203 L 541 203 L 540 202 Z"/><path d="M 147 202 L 146 203 L 142 203 L 141 204 L 138 204 L 137 205 L 136 205 L 135 206 L 133 206 L 132 207 L 131 207 L 129 209 L 128 209 L 126 211 L 125 211 L 117 219 L 117 220 L 114 223 L 114 224 L 113 225 L 113 226 L 112 227 L 112 228 L 111 229 L 111 230 L 110 231 L 110 232 L 109 233 L 109 234 L 108 235 L 108 237 L 107 238 L 107 241 L 106 242 L 106 245 L 105 246 L 105 252 L 104 253 L 104 271 L 105 272 L 105 279 L 106 280 L 106 284 L 107 285 L 107 288 L 108 289 L 108 291 L 109 292 L 109 295 L 110 296 L 110 298 L 111 299 L 111 300 L 112 301 L 112 303 L 113 304 L 113 305 L 114 306 L 114 307 L 115 308 L 115 310 L 116 311 L 116 312 L 118 314 L 118 315 L 119 316 L 119 317 L 120 318 L 120 319 L 122 321 L 122 322 L 123 323 L 123 324 L 126 327 L 126 328 L 129 331 L 129 332 L 143 346 L 144 346 L 147 349 L 148 349 L 150 351 L 151 351 L 153 353 L 154 353 L 155 354 L 156 354 L 157 355 L 158 355 L 159 356 L 160 356 L 161 357 L 163 357 L 164 358 L 166 358 L 167 359 L 170 359 L 171 360 L 175 360 L 176 361 L 188 361 L 189 360 L 193 360 L 194 359 L 197 359 L 198 358 L 199 358 L 200 357 L 201 357 L 202 356 L 203 356 L 204 355 L 205 355 L 206 354 L 207 354 L 209 352 L 210 352 L 218 344 L 218 343 L 221 340 L 221 339 L 222 338 L 222 337 L 223 336 L 223 335 L 224 334 L 224 333 L 225 332 L 225 331 L 226 330 L 226 328 L 227 327 L 227 325 L 228 324 L 228 322 L 229 321 L 229 317 L 230 316 L 230 311 L 231 310 L 231 292 L 230 291 L 230 285 L 229 284 L 229 279 L 228 278 L 228 275 L 227 274 L 227 272 L 226 271 L 226 268 L 225 267 L 225 265 L 224 264 L 224 263 L 223 262 L 223 260 L 222 259 L 222 258 L 221 257 L 221 256 L 220 255 L 220 253 L 219 252 L 219 251 L 217 249 L 217 248 L 216 247 L 216 246 L 215 245 L 215 244 L 213 242 L 213 241 L 212 240 L 212 239 L 209 236 L 209 235 L 206 232 L 206 231 L 191 216 L 190 216 L 188 214 L 187 214 L 185 212 L 184 212 L 182 210 L 181 210 L 180 209 L 179 209 L 178 208 L 177 208 L 176 207 L 175 207 L 174 206 L 172 206 L 171 205 L 169 205 L 168 204 L 166 204 L 165 203 L 160 203 L 159 202 Z"/><path d="M 263 98 L 262 99 L 258 99 L 257 100 L 255 100 L 254 101 L 252 101 L 251 102 L 250 102 L 249 103 L 248 103 L 247 104 L 246 104 L 244 106 L 243 106 L 231 118 L 231 119 L 229 121 L 229 122 L 228 123 L 228 124 L 226 126 L 226 127 L 225 128 L 225 129 L 224 130 L 224 131 L 223 132 L 223 134 L 222 135 L 222 137 L 221 138 L 221 140 L 220 141 L 220 143 L 219 144 L 219 147 L 218 148 L 218 152 L 217 153 L 217 160 L 216 161 L 216 181 L 217 182 L 217 189 L 218 190 L 218 195 L 219 196 L 219 199 L 220 200 L 220 203 L 221 204 L 221 206 L 222 207 L 222 209 L 223 210 L 223 212 L 224 213 L 224 214 L 225 215 L 225 217 L 226 218 L 226 219 L 227 220 L 227 221 L 228 222 L 228 223 L 229 224 L 229 225 L 230 226 L 230 227 L 232 229 L 232 230 L 233 231 L 233 232 L 236 235 L 236 236 L 239 239 L 239 240 L 248 249 L 249 249 L 252 252 L 253 252 L 255 254 L 256 254 L 257 255 L 258 255 L 259 256 L 260 256 L 261 257 L 262 257 L 263 258 L 265 258 L 266 259 L 268 259 L 269 260 L 273 260 L 274 261 L 286 261 L 287 260 L 291 260 L 292 259 L 294 259 L 295 258 L 297 258 L 298 257 L 299 257 L 300 256 L 301 256 L 303 254 L 304 254 L 306 252 L 307 252 L 317 242 L 317 241 L 320 238 L 320 237 L 321 236 L 321 235 L 323 233 L 323 232 L 324 231 L 324 230 L 325 229 L 325 227 L 326 226 L 326 225 L 327 224 L 327 222 L 328 221 L 328 219 L 329 218 L 329 216 L 330 215 L 330 212 L 331 211 L 331 207 L 332 206 L 332 199 L 333 198 L 333 178 L 332 177 L 332 170 L 331 169 L 331 164 L 330 163 L 330 160 L 329 159 L 329 156 L 328 155 L 328 153 L 327 152 L 327 150 L 326 149 L 326 147 L 325 146 L 325 145 L 324 144 L 324 142 L 323 141 L 323 140 L 322 139 L 322 138 L 321 137 L 321 136 L 320 135 L 320 134 L 319 133 L 319 132 L 317 130 L 317 129 L 316 128 L 316 127 L 314 125 L 314 124 L 311 121 L 311 120 L 301 110 L 300 110 L 297 107 L 296 107 L 294 105 L 293 105 L 292 104 L 291 104 L 290 103 L 289 103 L 288 102 L 287 102 L 286 101 L 284 101 L 283 100 L 281 100 L 280 99 L 276 99 L 275 98 Z"/><path d="M 412 98 L 411 99 L 407 99 L 406 100 L 404 100 L 403 101 L 401 101 L 400 102 L 399 102 L 398 103 L 397 103 L 396 104 L 395 104 L 394 105 L 393 105 L 391 107 L 390 107 L 387 110 L 386 110 L 376 120 L 376 121 L 373 124 L 373 125 L 371 127 L 371 128 L 370 129 L 370 130 L 368 132 L 368 133 L 367 134 L 367 135 L 366 136 L 366 137 L 365 138 L 365 139 L 364 140 L 364 141 L 363 142 L 363 144 L 362 145 L 362 146 L 361 147 L 361 149 L 360 150 L 360 152 L 359 153 L 359 155 L 358 156 L 358 159 L 357 160 L 357 163 L 356 164 L 356 169 L 355 170 L 355 177 L 354 178 L 354 198 L 355 199 L 355 206 L 356 207 L 356 211 L 357 212 L 357 215 L 358 216 L 358 218 L 359 219 L 359 221 L 360 222 L 360 224 L 361 225 L 361 227 L 362 228 L 362 229 L 363 230 L 363 231 L 364 232 L 364 233 L 366 235 L 366 236 L 367 237 L 367 238 L 369 240 L 369 241 L 380 252 L 381 252 L 383 254 L 384 254 L 386 256 L 387 256 L 388 257 L 389 257 L 390 258 L 392 258 L 393 259 L 395 259 L 396 260 L 400 260 L 401 261 L 413 261 L 414 260 L 418 260 L 419 259 L 421 259 L 422 258 L 424 258 L 425 257 L 426 257 L 427 256 L 428 256 L 429 255 L 430 255 L 431 254 L 432 254 L 434 252 L 435 252 L 438 249 L 439 249 L 448 240 L 448 239 L 451 236 L 451 235 L 454 232 L 454 231 L 455 230 L 455 229 L 457 227 L 457 226 L 458 225 L 458 224 L 459 223 L 459 222 L 460 221 L 460 220 L 461 219 L 461 218 L 462 217 L 462 215 L 463 214 L 463 213 L 464 212 L 464 210 L 465 209 L 465 207 L 466 206 L 466 204 L 467 203 L 467 200 L 468 199 L 468 196 L 469 195 L 469 190 L 470 189 L 470 182 L 471 181 L 471 161 L 470 160 L 470 153 L 469 152 L 469 148 L 468 147 L 468 144 L 467 143 L 467 141 L 466 140 L 466 138 L 465 137 L 465 135 L 464 134 L 464 133 L 463 132 L 463 130 L 462 129 L 462 128 L 461 127 L 461 126 L 459 124 L 459 123 L 458 122 L 458 121 L 455 118 L 455 117 L 444 106 L 443 106 L 442 105 L 441 105 L 439 103 L 438 103 L 437 102 L 436 102 L 435 101 L 433 101 L 432 100 L 430 100 L 429 99 L 425 99 L 424 98 Z"/>
  </g>
</svg>
