<svg id="Layer_1" height="512" viewBox="0 0 24 24" width="512" xmlns="http://www.w3.org/2000/svg" data-name="Layer 1"><path d="m3.5 5.75h15a2.25 2.25 0 0 0 0-4.5h-15a2.25 2.25 0 0 0 0 4.5z"/><path d="m18.5 7.75h-15a2.25 2.25 0 0 0 0 4.5h15a2.25 2.25 0 0 0 0-4.5z"/><path d="m10.5 14.75h-7a2.25 2.25 0 0 0 0 4.5h7a2.25 2.25 0 0 0 0-4.5z"/><path d="m18 13.25a4.75 4.75 0 1 0 4.75 4.75 4.754 4.754 0 0 0 -4.75-4.75zm1.5 5.5h-.75v.75a.75.75 0 0 1 -1.5 0v-.75h-.75a.75.75 0 0 1 0-1.5h.75v-.75a.75.75 0 0 1 1.5 0v.75h.75a.75.75 0 0 1 0 1.5z"/></svg>