<svg id="Layer_1" enable-background="new 0 0 510 510" height="512" viewBox="0 0 510 510" width="512" xmlns="http://www.w3.org/2000/svg"><g><path d="m466.574 50.98-36.449 328.04h30.185l33.116-298.04h16.574v-30z"/><path d="m453.955 409.02h-170v5c0 46.944 38.056 85 85 85 29.913 0 56.198-15.466 71.347-38.823 8.625-13.298 13.653-29.146 13.653-46.177z"/><g><path d="m253.955 414.02v-5-30h126.531c6.252-14.144 9.513-29.467 9.513-45.273v-127.767h30v-30h-419.999v30h30v127.767c0 61.885 50.348 112.233 112.232 112.233h116.207c-2.95-10.258-4.484-20.991-4.484-31.96z"/><path d="m300 70.98h-75v-30h31.667v-30h-93.334v30h31.667v30h-75c-47.667 0-84.706 31.3-89.605 75h358.999c-7.236-42.965-45.12-75-89.394-75z"/></g></g></svg>