<?xml version="1.0" encoding="iso-8859-1"?>
<!-- Generator: Adobe Illustrator 19.0.0, SVG Export Plug-In . SVG Version: 6.00 Build 0)  -->
<svg version="1.1" id="Layer_1" xmlns="http://www.w3.org/2000/svg" xmlns:xlink="http://www.w3.org/1999/xlink" x="0px" y="0px"
	 viewBox="0 0 512 512" style="enable-background:new 0 0 512 512;" xml:space="preserve">
<g>
	<g>
		<path d="M381.156,0H85.333c-9.425,0-17.067,7.641-17.067,17.067v432.356c0,9.425,7.641,17.067,17.067,17.067h28.444v28.444
			c0,9.425,7.641,17.067,17.067,17.067c9.425,0,17.067-7.641,17.067-17.067v-28.444h233.244c34.505,0,62.578-28.072,62.578-62.578
			V62.578C443.733,28.072,415.661,0,381.156,0z M329.956,288.043v40.775c0,9.425-7.641,17.067-17.067,17.067H199.111
			c-9.425,0-17.067-7.641-17.067-17.067v-40.775c-67.623-19.192-56.616-119.06,13.706-122.739c16.956-60.531,103.533-60.579,120.5,0
			C386.561,168.975,397.575,268.851,329.956,288.043z"/>
	</g>
</g>
<g>
</g>
<g>
</g>
<g>
</g>
<g>
</g>
<g>
</g>
<g>
</g>
<g>
</g>
<g>
</g>
<g>
</g>
<g>
</g>
<g>
</g>
<g>
</g>
<g>
</g>
<g>
</g>
<g>
</g>
</svg>
