<svg height="512" viewBox="0 0 64 64" width="512" xmlns="http://www.w3.org/2000/svg"><g id="_35-Recipe_Book" data-name="35-Recipe Book"><path d="m48 51h-31a1 1 0 0 1 0-2h31a1 1 0 0 1 0 2zm-19 2h-10v8a.99991.99991 0 0 0 1.707.707l3.293-3.29294 3.293 3.293a.99991.99991 0 0 0 1.707-.70706zm25-47v46a3.99891 3.99891 0 0 1 -4 4h-19v-2h19a2.00587 2.00587 0 0 0 2-2v-6h-36a4 4 0 0 0 0 8h1v2h-1a6.00475 6.00475 0 0 1 -6-6v-42a6.00475 6.00475 0 0 1 6-6h34a3.99887 3.99887 0 0 1 4 4zm-36 15a5.98257 5.98257 0 0 0 3.75293 5.55859l1.24707.50586v3.93555h18v-3.93555l1.24707-.50586a5.99313 5.99313 0 0 0 -2.21045-11.55175 6.04435 6.04435 0 0 0 -.80469.05468l-1.34131.17969-.666-1.17773a5.98689 5.98689 0 0 0 -10.44922 0l-.666 1.17773-1.34083-.17969a5.96295 5.96295 0 0 0 -6.76857 5.93848zm23 15v-3h-18v3a1.001 1.001 0 0 0 1 1h16a1.001 1.001 0 0 0 1-1z"/></g></svg>