<svg id="Layer_6_copy" height="512" viewBox="0 0 64 64" width="512" xmlns="http://www.w3.org/2000/svg" data-name="Layer 6 copy"><g fill="#f5fcfc"><path d="m32 13c-12.15 0-22 8.0588-22 18h44c0-9.9412-9.85-18-22-18z"/><circle cx="10.012" cy="30.988" r="3"/><circle cx="29.58" cy="31" r="3"/><circle cx="14.915" cy="31" r="3"/><circle cx="34.468" cy="31" r="3"/><circle cx="19.803" cy="31" r="3"/><circle cx="24.691" cy="31" r="3"/><circle cx="39.357" cy="31" r="3"/><circle cx="44.246" cy="31" r="3"/><circle cx="49.133" cy="31" r="3"/><circle cx="53.988" cy="30.988" r="3"/><circle cx="21.787" cy="15.059" r="3"/><circle cx="10.921" cy="25.847" r="3"/><circle cx="17.245" cy="17.659" r="3"/><circle cx="13.486" cy="21.274" r="3"/><circle cx="50.515" cy="21.293" r="3"/><circle cx="46.78" cy="17.667" r="3"/><circle cx="42.237" cy="15.064" r="3"/><circle cx="26.789" cy="13.51" r="3"/><circle cx="53.092" cy="25.864" r="3"/><circle cx="37.234" cy="13.511" r="3"/><circle cx="32.028" cy="13" r="3"/></g><path d="m60 31h-56a27.072 27.072 0 0 0 17.6386 25.1178l-1.8018 3.8622a.7068.7068 0 0 0 .6032 1.02h23.12a.7068.7068 0 0 0 .603-1.02l-1.8017-3.8623a27.072 27.072 0 0 0 17.6387-25.1177z" fill="#4d4d4d"/><path d="m44.1631 59.98-1.8017-3.8622h-20.7228l-1.8017 3.8622a.7067.7067 0 0 0 .6031 1.02h23.12a.7067.7067 0 0 0 .6031-1.02z" fill="#424242"/><path d="m54.9873 28.1718a2.988 2.988 0 0 0 -1.8954-5.3077c-.0112 0-.0216.0032-.0328.0033a2.9706 2.9706 0 0 0 -3.3891-4.4384 2.98 2.98 0 0 0 -4.4382-3.32c0-.0154.0046-.03.0046-.0452a2.9939 2.9939 0 0 0 -5.0664-2.1665 2.9917 2.9917 0 0 0 -5.3655-1.1312 2.4755 2.4755 0 0 0 -.16.3387 2.9908 2.9908 0 0 1 2.592 2.9589c0 .0154-.0043.03-.0046.0452a2.9714 2.9714 0 0 1 4.4382 3.32 2.9812 2.9812 0 0 1 3.3888 4.4383c.0112 0 .0215-.0033.0328-.0033a2.988 2.988 0 0 1 1.8954 5.3077 2.9912 2.9912 0 0 1 2.0006 2.8165h8a2.9912 2.9912 0 0 0 -2.0004-2.8163z" fill="#dceded"/><path d="m36.1631 59.98a.7069.7069 0 0 1 -.6031 1.02h8a.7069.7069 0 0 0 .603-1.02l-1.8018-3.8621h-8z" fill="#373737"/><path d="m60 31h-8a27.0721 27.0721 0 0 1 -17.6386 25.1179h8a27.0722 27.0722 0 0 0 17.6386-25.1179z" fill="#424242"/><path d="m56.2581 12h-8.2581v-2l7.1235-3.238a2.7419 2.7419 0 0 1 3.8765 2.4961 2.7419 2.7419 0 0 1 -2.7419 2.7419z" fill="#ff9119"/><path d="m56.2581 12h-8.2581v2l7.1235 3.238a2.7419 2.7419 0 0 0 3.8765-2.4961 2.7419 2.7419 0 0 0 -2.7419-2.7419z" fill="#ff640a"/><path d="m46 8a3.9872 3.9872 0 0 0 -7.5-1.8991 3.96 3.96 0 0 0 -6.5-.7209 3.96 3.96 0 0 0 -6.5.7214 3.9872 3.9872 0 0 0 -7.5 1.8986 4 4 0 0 0 0 8 3.9872 3.9872 0 0 0 7.5 1.899 3.96 3.96 0 0 0 6.5.7215 3.96 3.96 0 0 0 6.5-.7215 3.9872 3.9872 0 0 0 7.5-1.899 4 4 0 0 0 0-8z" fill="#ffcb1e"/></svg>