<svg xmlns="http://www.w3.org/2000/svg" viewBox="0 0 512 512">
  <path fill="#2F4F4F" d="M430 180c-50-60-160-80-260-20-30 18-55 45-70 80l-80-40v120l80-40c15 35 40 62 70 80 100 60 210 40 260-20s50-100 0-160z"/>
  <path fill="#E8F0EE" d="M410 195c-45-55-145-73-235-18-27 16-50 41-63 73l-62-31v94l62-31c13 32 36 57 63 73 90 55 190 37 235-18s45-92 0-142z" opacity="0.3"/>
  <circle fill="#FDFBF7" cx="360" cy="230" r="15"/>
  <path fill="none" stroke="#FDFBF7" stroke-width="15" stroke-linecap="round" d="M280 150c-20 30-20 90 0 120"/>
</svg>