<svg enable-background="new 0 0 64 64" height="512" viewBox="0 0 64 64" width="512" xmlns="http://www.w3.org/2000/svg"><g id="spoon_and_fork"><path d="m49.05 27.59c-1.74 1.69-2.71 4.11-2.71 6.72 0 .19.01.38.02.57l1.26 22.6c.01.06.01.14.01.24 0 1.12-.42 2.18-1.2 2.99-.81.83-1.89 1.29-3.03 1.29-1.15 0-2.23-.46-3.03-1.29-.83-.85-1.27-2.03-1.2-3.23l1.27-22.6c.16-2.83-.82-5.48-2.69-7.29-2.69-2.62-4.3-6.93-4.3-11.55 0-7.74 4.47-14.04 9.95-14.04 5.49 0 9.95 6.3 9.95 14.04 0 4.62-1.61 8.93-4.3 11.55z"/><path d="m28.67 2.67c.55.49.86 1.2.86 1.94v15.28c0 2.7-1.14 5.29-3.13 7.1-2.29 2.09-3.51 4.97-3.34 7.91l1.26 22.58v.25c0 1.11-.42 2.17-1.19 2.98-.81.83-1.88 1.29-3.03 1.29-1.16 0-2.24-.46-3.04-1.29-.83-.85-1.26-2.03-1.2-3.23l1.27-22.65c.17-2.93-1.02-5.82-3.18-7.75-2.09-1.88-3.3-4.59-3.3-7.43v-15.04c0-.7.28-1.37.76-1.85s1.13-.76 1.82-.76c1.43 0 2.59 1.17 2.59 2.61v11.46c0 .34.26.61.58.61h.53c.32 0 .58-.27.58-.61v-11.46c0-.74.31-1.45.86-1.94.54-.49 1.26-.73 1.98-.66 1.33.15 2.33 1.3 2.33 2.69v11.37c0 .34.26.61.58.61h.52c.32 0 .58-.27.58-.61v-11.37c0-1.39 1-2.54 2.31-2.69.73-.07 1.46.17 2 .66z"/></g></svg>