<svg clip-rule="evenodd" fill-rule="evenodd" stroke-linejoin="round" stroke-miterlimit="2" viewBox="0 0 32 32" xmlns="http://www.w3.org/2000/svg"><g transform="translate(-96 -192)"><g transform="matrix(.833 0 0 1 15.264 0)"><path d="m103.517 199c1.363 0 2.61.642 3.22 1.658l3.6 6c.506.845.506 1.839 0 2.684l-3.6 6c-.61 1.016-1.857 1.658-3.22 1.658h-.634c-1.247 0-2.406-.538-3.062-1.423-.656-.884-.716-1.989-.158-2.919l2.527-4.211c.169-.281.169-.613 0-.894l-2.527-4.211c-.558-.93-.498-2.035.158-2.919.656-.885 1.815-1.423 3.062-1.423zm21.6 0c1.363 0 2.61.642 3.22 1.658l3.6 6c.506.845.506 1.839 0 2.684l-3.6 6c-.61 1.016-1.857 1.658-3.22 1.658h-.634c-1.247 0-2.406-.538-3.062-1.423-.656-.884-.716-1.989-.158-2.919l2.527-4.211c.169-.281.169-.613 0-.894l-2.527-4.211c-.558-.93-.498-2.035.158-2.919.656-.885 1.815-1.423 3.062-1.423zm-10.8 0c1.363 0 2.61.642 3.22 1.658l3.6 6c.506.845.506 1.839 0 2.684l-3.6 6c-.61 1.016-1.857 1.658-3.22 1.658h-.634c-1.247 0-2.406-.538-3.062-1.423-.656-.884-.716-1.989-.158-2.919l2.527-4.211c.169-.281.169-.613 0-.894l-2.527-4.211c-.558-.93-.498-2.035.158-2.919.656-.885 1.815-1.423 3.062-1.423z"/></g></g></svg>