<svg height="512" viewBox="0 0 64 64" width="512" xmlns="http://www.w3.org/2000/svg"><g id="Icon"><path d="m59 46h-54a1 1 0 0 0 -1 1v4a1 1 0 0 0 1 1h4.382l1.723 3.447a1 1 0 0 0 .895.553h40a1 1 0 0 0 .9-.553l1.718-3.447h4.382a1 1 0 0 0 1-1v-4a1 1 0 0 0 -1-1z"/><path d="m32 27.032a4.977 4.977 0 0 1 4-2.032h8v-14a3 3 0 0 0 -3-3h-18a3 3 0 0 0 -3 3v14h8a4.981 4.981 0 0 1 4 2.032z"/><path d="m33 30v14h24v-14a3 3 0 0 0 -3-3h-18a3 3 0 0 0 -3 3z"/><path d="m31 30a3 3 0 0 0 -3-3h-18a3 3 0 0 0 -3 3v14h24z"/></g></svg>