<svg id="Capa_1" enable-background="new 0 0 512 512" viewBox="0 0 512 512" xmlns="http://www.w3.org/2000/svg"><g><g><g><g><g><path d="m218.445 24.257c-1.343.192-2.56.894-3.398 1.962-10.253 13.066-12.145 31.564-3.332 46.828 9.182 15.904 27.215 23.5 44.285 20.181 11.409-13.124 13.848-32.538 4.665-48.442-8.812-15.264-25.778-22.875-42.22-20.529z" fill="#1eb07c"/><path d="m293.555 24.257c1.343.192 2.56.894 3.398 1.962 10.253 13.066 12.145 31.564 3.332 46.828-9.182 15.904-27.215 23.5-44.285 20.181-11.409-13.124-13.848-32.538-4.665-48.442 8.812-15.264 25.778-22.875 42.22-20.529z" fill="#bcea73"/><path d="m300.287 73.05c-9.189 15.906-27.217 23.498-44.287 20.181-1.896-2.184-3.544-4.533-4.924-7.016 10.137-2.864 19.203-9.519 24.879-19.357 7.665-13.269 7.232-28.958.258-41.424 5.584-1.586 11.497-2.009 17.338-1.174 1.35.185 2.565.896 3.4 1.957 10.259 13.074 12.145 31.565 3.336 46.833z" fill="#99d53b"/></g><g><g><path d="m326.17 87.314h-180.453c-5.779 0-10.464 4.685-10.464 10.464v149.753l205.966 13.882v-159.049c0-8.312-6.738-15.05-15.049-15.05z" fill="#ffe7d7"/></g></g><g><g><path d="m376.482 97.776v166.014l-41.855-16.257v-149.757c0-5.776-4.688-10.464-10.464-10.464h41.855c5.776 0 10.464 4.688 10.464 10.464z" fill="#fcca9f"/></g></g><g fill="#fcca9f"><path d="m188.686 137.725h-10.945c-4.267 0-7.726-3.459-7.726-7.726s3.459-7.726 7.726-7.726h10.945c4.267 0 7.726 3.459 7.726 7.726s-3.459 7.726-7.726 7.726z"/><path d="m248.336 163.37h-10.945c-4.267 0-7.726-3.459-7.726-7.726s3.459-7.726 7.726-7.726h10.945c4.267 0 7.726 3.459 7.726 7.726s-3.459 7.726-7.726 7.726z"/><path d="m194.158 213.976h-10.945c-4.267 0-7.726-3.459-7.726-7.726s3.459-7.726 7.726-7.726h10.945c4.267 0 7.726 3.459 7.726 7.726s-3.458 7.726-7.726 7.726z"/></g><path d="m425.259 247.531-157.632.002-9.759 160.215h177.855v-149.753c0-5.779-4.685-10.464-10.464-10.464z" fill="#ffe7d7"/><path d="m474.872 257.996v149.746h-41.855v-149.746c0-5.776-4.688-10.464-10.464-10.464h41.855c5.777.001 10.464 4.688 10.464 10.464z" fill="#fcca9f"/><path d="m436.856 488.16h-351.652c-8.414 0-16.009-5.039-19.281-12.79l-15.53-36.798h421.272l-15.53 36.798c-3.27 7.751-10.865 12.79-19.279 12.79z" fill="#64b9fc"/><path d="m471.668 438.568-15.535 36.798c-3.266 7.757-10.868 12.795-19.275 12.795h-41.207c8.406 0 16.009-5.038 19.275-12.795l15.535-36.798z" fill="#1c96f9"/><g><path d="m225.737 247.531h-178.41c-5.779 0-10.464 4.685-10.464 10.464v149.753h219.515l-10.87-141.901c-.79-10.335-9.406-18.316-19.771-18.316z" fill="#fcca9f"/></g><path d="m278.091 257.996v149.746h-41.855v-149.746c0-5.776-4.688-10.464-10.464-10.464h41.855c5.776.001 10.464 4.688 10.464 10.464z" fill="#fca863"/><g><path d="m501.536 446.29h-491.072c-5.779 0-10.464-4.685-10.464-10.463v-21.027c0-5.779 4.685-10.464 10.464-10.464h491.073c5.779 0 10.464 4.685 10.464 10.464v21.027c-.001 5.778-4.686 10.463-10.465 10.463z" fill="#8dcafc"/></g><g><path d="m512 414.802v21.026c0 5.779-4.687 10.467-10.467 10.467h-41.207c5.779 0 10.467-4.687 10.467-10.467v-21.026c0-5.779-4.687-10.467-10.467-10.467h41.207c5.78 0 10.467 4.688 10.467 10.467z" fill="#64b9fc"/></g></g></g></g><g><g fill="#fca863"><path d="m175.076 328.776h-10.945c-4.267 0-7.726-3.459-7.726-7.726s3.459-7.726 7.726-7.726h10.945c4.267 0 7.726 3.459 7.726 7.726 0 4.266-3.459 7.726-7.726 7.726z"/><path d="m101.021 378.505h-10.945c-4.267 0-7.726-3.459-7.726-7.726s3.459-7.726 7.726-7.726h10.945c4.267 0 7.726 3.459 7.726 7.726s-3.459 7.726-7.726 7.726z"/><path d="m200.835 295.475h-10.945c-4.267 0-7.726-3.459-7.726-7.726s3.459-7.726 7.726-7.726h10.945c4.267 0 7.726 3.459 7.726 7.726s-3.459 7.726-7.726 7.726z"/><path d="m154.304 295.475h-10.945c-4.267 0-7.726-3.459-7.726-7.726s3.459-7.726 7.726-7.726h10.945c4.267 0 7.726 3.459 7.726 7.726s-3.459 7.726-7.726 7.726z"/></g><path d="m335.109 354.329h-10.946c-4.268 0-7.726-3.459-7.726-7.726s3.459-7.726 7.726-7.726h10.946c4.268 0 7.726 3.459 7.726 7.726s-3.459 7.726-7.726 7.726z" fill="#fcca9f"/><path d="m385.341 301h-10.946c-4.268 0-7.726-3.459-7.726-7.726s3.459-7.726 7.726-7.726h10.946c4.268 0 7.726 3.459 7.726 7.726s-3.458 7.726-7.726 7.726z" fill="#fcca9f"/></g></g><g/><g/><g/><g/><g/><g/><g/><g/><g/><g/><g/><g/><g/><g/><g/></svg>